<svg width="360" height="360" viewBox="0 0 360 360" fill="none" xmlns="http://www.w3.org/2000/svg">
<path d="M20.5368 96H2.35025C1.10518 96 0 97.0882 0 97.9502V260.852C0 262.067 1.03523 263 2.35025 263H20.5368C21.572 263 22.6772 262.138 22.6772 260.852V97.9502C22.6632 97.1306 21.586 96 20.5368 96Z" fill="black"/>
<path d="M165.102 96H146.919C145.673 96 144.567 97.0882 144.567 97.9502V260.852C144.567 262.067 145.589 263 146.919 263H165.102C166.138 263 167.244 262.138 167.244 260.852V97.9502C167.23 97.1164 166.18 96 165.102 96Z" fill="black"/>
<path d="M68.7257 96H50.5392C49.2941 96 48.189 97.0882 48.189 97.9502V260.852C48.189 262.067 49.2102 263 50.5392 263H68.7257C69.761 263 70.8661 262.138 70.8661 260.852V97.9502C70.8521 97.1306 69.7749 96 68.7257 96Z" fill="black"/>
<path d="M116.913 96H98.7156C97.4838 96 96.3779 97.0882 96.3779 97.9502V260.852C96.3779 262.067 97.3998 263 98.7156 263H116.913C117.949 263 119.055 262.138 119.055 260.852V97.9502C119.041 97.1164 117.991 96 116.913 96Z" fill="black"/>
<path d="M360 116.559L360 98.3528C360 97.1064 358.91 96 358.047 96L194.907 96C193.69 96 192.756 97.0363 192.756 98.3528L192.756 116.559C192.756 117.595 193.619 118.702 194.907 118.702L358.047 118.702C358.868 118.688 360 117.609 360 116.559Z" fill="black"/>
<path d="M360 260.861L360 242.704C360 241.46 358.91 240.356 358.047 240.356L194.907 240.356C193.69 240.356 192.756 241.376 192.756 242.704L192.756 260.861C192.756 261.896 193.619 263 194.907 263L358.047 263C358.882 262.986 360 261.938 360 260.861Z" fill="black"/>
<path d="M360 164.625L360 146.465C360 145.222 358.91 144.119 358.047 144.119L194.907 144.119C193.69 144.119 192.756 145.138 192.756 146.465L192.756 164.625C192.756 165.659 193.619 166.763 194.907 166.763L358.047 166.763C358.868 166.749 360 165.673 360 164.625Z" fill="black"/>
<path d="M360 212.743L360 194.572C360 193.342 358.91 192.237 358.047 192.237L194.907 192.237C193.69 192.237 192.756 193.258 192.756 194.572L192.756 212.743C192.756 213.777 193.619 214.881 194.907 214.881L358.047 214.881C358.882 214.867 360 213.819 360 212.743Z" fill="black"/>
</svg>
