<?xml version="1.0" encoding="UTF-8"?>
<!DOCTYPE svg PUBLIC "-//W3C//DTD SVG 1.1//EN" "http://www.w3.org/Graphics/SVG/1.1/DTD/svg11.dtd">
<svg version="1.1" xmlns="http://www.w3.org/2000/svg" xmlns:xlink="http://www.w3.org/1999/xlink" x="0" y="0" width="984" height="888" viewBox="0, 0, 984, 888">
  <defs>
    <linearGradient id="Gradient_1" gradientUnits="userSpaceOnUse" x1="492" y1="44" x2="492" y2="932">
      <stop offset="0" stop-color="#3E3636"/>
      <stop offset="1" stop-color="#000000"/>
    </linearGradient>
  </defs>
  <g id="Layer_1" transform="translate(0, -44)">
    <path d="M0,44 L984,44 L984,932 L0,932 L0,44 z" fill="url(#Gradient_1)"/>
    <path d="M131.579,612.132 L165.709,244.27 L238.163,239.611 L288.324,431.326 L344.634,266.811 L389.676,260.59 L505.104,532.71 L432.844,539.829 L358.518,357.074 L320.988,519.563 L270.369,523.923 L206.069,313.477 L194.872,605.862 C194.872,605.862 126.877,612.141 131.569,612.141 z" fill="#DEDEDE"/>
    <path d="M749.245,426.334 L852.663,277.552 C852.663,277.552 799.814,251.952 799.814,249.724 L719.645,367.516 L662.735,245.789 C662.735,245.789 599.391,268.022 601.733,274.687 L685.189,415.502 L579.532,554.823 L648.657,570.381 L717.09,472.373 L789.432,605.954 L838.697,574.828 L748.502,427.395 L749.245,426.325 z" fill="#DEDEDE"/>
    <path d="M533.239,223.141 L493.215,210.322 L382.347,612.175 L435.552,631.264 L677.107,609.04 L699.593,586.055 L533.239,223.141 z M469.957,585.216 L532.832,332.628 L645.268,576.747 L469.957,585.216 z" fill="#FF3968"/>
  </g>
</svg>
