<?xml version="1.0" encoding="UTF-8"?>
<!DOCTYPE svg PUBLIC "-//W3C//DTD SVG 1.1//EN" "http://www.w3.org/Graphics/SVG/1.1/DTD/svg11.dtd">
<svg version="1.1" xmlns="http://www.w3.org/2000/svg" xmlns:xlink="http://www.w3.org/1999/xlink" x="0" y="0" width="570.909" height="581.818" viewBox="0, 0, 570.909, 581.818">
  <g id="Capa_1" transform="translate(-109.091, -109.091)">
    <path d="M399.6,109.091 L218.182,290.545 L218.182,509.455 L399.6,690.909 L436.364,690.909 L436.364,109.164 L399.6,109.164 z" fill="#000000"/>
    <path d="M181.818,290.909 L181.818,509.091 L109.091,509.091 L109.091,290.909 z" fill="#000000"/>
    <path d="M478.704,283.315 C509.811,314.94 526.94,356.399 526.94,399.976 C526.94,443.601 509.811,485.06 478.704,516.684 L512.164,549.673 C552.07,509.249 574,456.072 574,399.977 C574,343.928 552.07,290.751 512.164,250.327 z" fill="#000000"/>
    <path d="M543.386,183.69 C601.175,241.48 632.94,318.281 632.94,400.024 C632.94,481.719 601.175,558.568 543.386,616.31 L576.657,649.581 C643.34,582.897 680,494.284 680,400.023 C680,305.763 643.34,217.102 576.657,150.419 z" fill="#000000"/>
  </g>
</svg>
