<?xml version="1.0" encoding="UTF-8"?>
<!DOCTYPE svg PUBLIC "-//W3C//DTD SVG 1.1//EN" "http://www.w3.org/Graphics/SVG/1.1/DTD/svg11.dtd">
<svg version="1.1" xmlns="http://www.w3.org/2000/svg" xmlns:xlink="http://www.w3.org/1999/xlink" x="0" y="0" width="337" height="337" viewBox="0, 0, 337, 337">
  <g id="Layer_1" transform="translate(-402.5, -251.5)">
    <path d="M526.907,348 L615.093,348 C630.506,348 643,360.494 643,375.907 L643,464.093 C643,479.506 630.506,492 615.093,492 L526.907,492 C511.494,492 499,479.506 499,464.093 L499,375.907 C499,360.494 511.494,348 526.907,348 z" fill-opacity="0" stroke="#000000" stroke-width="22"/>
    <path d="M507.5,296.5 L634.5,296.5 C667.637,296.5 694.5,323.363 694.5,356.5 L694.5,483.5 C694.5,516.637 667.637,543.5 634.5,543.5 L507.5,543.5 C474.363,543.5 447.5,516.637 447.5,483.5 L447.5,356.5 C447.5,323.363 474.363,296.5 507.5,296.5 z" fill-opacity="0" stroke="#000000" stroke-width="22"/>
  </g>
</svg>
