<?xml version="1.0" encoding="UTF-8"?>
<!DOCTYPE svg PUBLIC "-//W3C//DTD SVG 1.1//EN" "http://www.w3.org/Graphics/SVG/1.1/DTD/svg11.dtd">
<svg version="1.1" xmlns="http://www.w3.org/2000/svg" xmlns:xlink="http://www.w3.org/1999/xlink" x="0" y="0" width="256.064" height="235" viewBox="0, 0, 256.064, 235">
  <g id="Layer_1" transform="translate(-710.8, -737)">
    <path d="M740.3,878.5 L830.3,878.5" fill-opacity="0" stroke="#000000" stroke-width="15"/>
    <path d="M740.3,911.5 L893.3,911.5" fill-opacity="0" stroke="#000000" stroke-width="15"/>
    <path d="M740.3,943.5 L811.3,943.5" fill-opacity="0" stroke="#000000" stroke-width="15"/>
    <path d="M738.364,738.5 L966.364,738.5 L966.364,966.5 L738.364,966.5 L738.364,738.5 z" fill-opacity="0" stroke="#000000" stroke-width="0.5"/>
    <path d="M762.118,833.591 Q750.336,833.591 743.955,827.536 Q737.573,821.482 737.573,810.573 L737.573,789.082 Q737.573,778.064 743.9,772.009 Q750.227,765.955 762.009,765.955 Q772.7,765.955 778.373,771.682 Q784.045,777.409 785.355,789.409 L769.209,790.5 Q768.773,783.3 767.082,780.791 Q765.391,778.282 761.573,778.282 Q757.645,778.282 755.955,780.736 Q754.264,783.191 754.264,789.736 L754.264,810.027 Q754.264,816.464 755.955,818.918 Q757.645,821.373 761.682,821.373 Q765.609,821.373 767.245,819.3 Q768.882,817.227 769.209,811.227 L785.355,812.318 Q784.809,823.336 779.136,828.464 Q773.464,833.591 762.118,833.591 z" fill="#000000"/>
    <path d="M821.391,833.591 Q810.264,833.591 803.882,827.536 Q797.5,821.482 797.5,811.009 L797.5,788.973 Q797.5,778.173 803.882,772.064 Q810.264,765.955 821.391,765.955 Q832.409,765.955 838.791,772.173 Q845.173,778.391 845.173,789.191 L845.173,811.227 Q845.173,821.7 838.791,827.645 Q832.409,833.591 821.391,833.591 z M821.391,821.373 Q825.1,821.373 826.791,818.918 Q828.482,816.464 828.482,810.573 L828.482,789.409 Q828.482,783.409 826.791,780.791 Q825.1,778.173 821.391,778.173 Q817.682,778.173 815.936,780.791 Q814.191,783.409 814.191,789.3 L814.191,810.245 Q814.191,816.245 815.936,818.809 Q817.682,821.373 821.391,821.373 z" fill="#000000"/>
    <path d="M858.846,832.5 L858.846,820.282 L874.445,820.282 L874.445,757.445 L858.846,757.445 L858.846,745.227 L891.136,745.227 L891.136,820.282 L905.864,820.282 L905.864,832.5 z" fill="#000000"/>
    <path d="M918.664,832.5 L918.664,820.282 L934.264,820.282 L934.264,757.445 L918.664,757.445 L918.664,745.227 L950.955,745.227 L950.955,820.282 L965.682,820.282 L965.682,832.5 z" fill="#000000"/>
  </g>
</svg>
