<?xml version="1.0" encoding="UTF-8"?>
<!DOCTYPE svg PUBLIC "-//W3C//DTD SVG 1.1//EN" "http://www.w3.org/Graphics/SVG/1.1/DTD/svg11.dtd">
<svg version="1.1" xmlns="http://www.w3.org/2000/svg" xmlns:xlink="http://www.w3.org/1999/xlink" x="0" y="0" width="256.064" height="235" viewBox="0, 0, 256.064, 235">
  <g id="Layer_1" transform="translate(-707.3, -737)">
    <path d="M736.8,878.5 L826.8,878.5" fill-opacity="0" stroke="#000000" stroke-width="15"/>
    <path d="M736.8,911.5 L889.8,911.5" fill-opacity="0" stroke="#000000" stroke-width="15"/>
    <path d="M736.8,943.5 L807.8,943.5" fill-opacity="0" stroke="#000000" stroke-width="15"/>
    <path d="M734.864,738.5 L962.864,738.5 L962.864,966.5 L734.864,966.5 L734.864,738.5 z" fill-opacity="0" stroke="#000000" stroke-width="0.5"/>
    <path d="M757.327,820 Q760.055,820 762.182,818.418 Q764.309,816.836 766.055,813.455 L766.055,781.164 Q763.873,779.309 762.073,778.491 Q760.273,777.673 758.418,777.673 Q754.818,777.673 753.291,780.127 Q751.764,782.582 751.764,788.364 L751.764,809.854 Q751.764,814.982 753.182,817.491 Q754.6,820 757.327,820 z M763.655,822.836 Q762.455,827.2 759.127,830.145 Q755.8,833.091 750.345,833.091 Q742.709,833.091 738.891,827.145 Q735.073,821.2 735.073,811.818 L735.073,788.255 Q735.073,777.673 740.473,771.673 Q745.873,765.673 755.364,765.673 Q758.2,765.673 760.927,766.382 Q763.655,767.091 766.055,768.509 L766.055,744.727 L782.745,744.727 L782.745,832 L766.055,832 L766.055,822.836 z" fill="#000000"/>
    <path d="M795.764,832 L795.764,819.782 L810.382,819.782 L810.382,778.764 L795.764,778.764 L795.764,766.545 L827.182,766.545 L827.182,819.782 L841.8,819.782 L841.8,832 z M819.655,755.527 Q814.964,755.527 811.964,754 Q808.964,752.473 808.964,748.436 L808.964,747.236 Q808.964,743.2 811.964,741.509 Q814.964,739.818 819.655,739.818 Q824.455,739.818 827.4,741.509 Q830.345,743.2 830.345,747.236 L830.345,748.436 Q830.345,752.473 827.345,754 Q824.345,755.527 819.655,755.527 z" fill="#000000"/>
    <path d="M879.255,833.091 Q867.473,833.091 861.091,827.036 Q854.709,820.982 854.709,810.073 L854.709,788.582 Q854.709,777.564 861.036,771.509 Q867.364,765.455 879.145,765.455 Q889.836,765.455 895.509,771.182 Q901.182,776.909 902.491,788.909 L886.345,790 Q885.909,782.8 884.218,780.291 Q882.527,777.782 878.709,777.782 Q874.782,777.782 873.091,780.236 Q871.4,782.691 871.4,789.236 L871.4,809.527 Q871.4,815.964 873.091,818.418 Q874.782,820.873 878.818,820.873 Q882.745,820.873 884.382,818.8 Q886.018,816.727 886.345,810.727 L902.491,811.818 Q901.945,822.836 896.273,827.964 Q890.6,833.091 879.255,833.091 z" fill="#000000"/>
    <path d="M947.582,833.091 Q937.436,833.091 931.709,827.255 Q925.982,821.418 925.982,811.273 L925.982,778.764 L914.527,778.764 L914.527,766.545 L925.982,766.545 L925.982,744.727 L942.673,744.727 L942.673,766.545 L960.455,766.545 L960.455,778.764 L942.673,778.764 L942.673,810.4 Q942.673,815.2 944.636,817.873 Q946.6,820.545 950.418,820.545 Q953.146,820.545 955.655,819.782 Q958.164,819.018 959.582,818.364 L961.218,830.473 Q959.364,831.564 955.545,832.327 Q951.727,833.091 947.582,833.091 z" fill="#000000"/>
  </g>
</svg>
