<?xml version="1.0" encoding="UTF-8"?>
<!DOCTYPE svg PUBLIC "-//W3C//DTD SVG 1.1//EN" "http://www.w3.org/Graphics/SVG/1.1/DTD/svg11.dtd">
<svg version="1.1" xmlns="http://www.w3.org/2000/svg" xmlns:xlink="http://www.w3.org/1999/xlink" x="0" y="0" width="256.064" height="235" viewBox="0, 0, 256.064, 235">
  <g id="Layer_1" transform="translate(-447.8, -737)">
    <path d="M477.3,878.5 L567.3,878.5" fill-opacity="0" stroke="#000000" stroke-width="15"/>
    <path d="M477.3,911.5 L630.3,911.5" fill-opacity="0" stroke="#000000" stroke-width="15"/>
    <path d="M477.3,943.5 L548.3,943.5" fill-opacity="0" stroke="#000000" stroke-width="15"/>
    <path d="M475.364,738.5 L703.364,738.5 L703.364,966.5 L475.364,966.5 L475.364,738.5 z" fill-opacity="0" stroke="#000000" stroke-width="0.5"/>
    <path d="M554.8,836.255 Q554.8,845.091 549.618,850 Q544.436,854.909 535.6,854.909 L521.636,854.909 Q511.709,854.909 506.964,850.764 Q502.218,846.618 502.218,839.2 Q502.218,833.855 504.891,830.636 Q507.564,827.418 511.273,826.873 L511.273,824.691 Q508.218,823.709 506.145,821.2 Q504.073,818.691 504.073,813.455 Q504.073,808.109 507.345,804.4 Q510.618,800.691 515.309,799.927 L515.309,797.964 Q510.945,796.327 508.655,792.945 Q506.364,789.564 506.364,785.527 L506.364,783.782 Q506.364,775.927 512.091,771.236 Q517.818,766.545 527.091,766.545 L554.8,766.545 L554.8,777.345 L541.273,775.055 L541.273,777.127 Q544.327,778.218 546.345,781.436 Q548.364,784.655 548.364,788.255 L548.364,790.109 Q548.364,797.855 542.527,802.327 Q536.691,806.8 527.636,806.8 L521.964,806.8 Q519.236,806.8 517.655,808.164 Q516.073,809.527 516.073,812.691 Q516.073,815.745 517.6,817.218 Q519.127,818.691 521.855,818.691 L536.146,818.691 Q544.655,818.691 549.727,822.891 Q554.8,827.091 554.8,836.255 z M527.309,797.855 Q530.473,797.855 531.836,795.673 Q533.2,793.491 533.2,789.236 L533.2,784.982 Q533.2,780.836 531.782,778.764 Q530.364,776.691 527.309,776.691 Q524.146,776.691 522.727,778.764 Q521.309,780.836 521.309,784.982 L521.309,789.236 Q521.309,793.491 522.618,795.673 Q523.927,797.855 527.309,797.855 z M524.036,844.764 L535.164,844.764 Q537.891,844.764 539.636,843.291 Q541.382,841.818 541.382,837.673 Q541.382,833.636 539.691,832.164 Q538,830.691 535.382,830.691 L517.927,830.691 L517.927,837.127 Q517.927,840.836 519.127,842.8 Q520.327,844.764 524.036,844.764 z" fill="#000000"/>
    <path d="M612.545,817.164 Q610.364,825.673 605.073,829.382 Q599.782,833.091 589.309,833.091 Q577.855,833.091 571.146,827.091 Q564.436,821.091 564.436,810.291 L564.436,787.709 Q564.436,777.236 570.927,771.345 Q577.418,765.455 588.327,765.455 Q599.345,765.455 605.727,771.509 Q612.109,777.564 612.109,788.909 L612.109,802.436 L581.127,802.436 L581.127,811.055 Q581.127,816.509 583.091,819.182 Q585.055,821.855 589.855,821.855 Q593.782,821.855 595.964,820 Q598.146,818.145 598.909,813.345 z M581.127,786.727 L581.127,792.945 L595.418,792.945 L595.418,787.055 Q595.418,781.164 593.836,778.764 Q592.255,776.364 588.327,776.364 Q584.291,776.364 582.709,778.655 Q581.127,780.945 581.127,786.727 z" fill="#000000"/>
    <path d="M624.255,832 L624.255,766.545 L640.945,766.545 L640.945,775.709 L643.455,775.709 Q645.2,770.909 649.018,768.182 Q652.836,765.455 657.745,765.455 Q664.4,765.455 668.164,770.473 Q671.927,775.491 671.927,784.436 L671.927,832 L655.236,832 L655.236,787.382 Q655.236,783.018 653.818,780.727 Q652.4,778.436 649.782,778.436 Q647.055,778.436 644.764,780.345 Q642.473,782.255 640.945,785.855 L640.945,832 z" fill="#000000"/>
  </g>
</svg>
