<?xml version="1.0" encoding="UTF-8"?>
<!DOCTYPE svg PUBLIC "-//W3C//DTD SVG 1.1//EN" "http://www.w3.org/Graphics/SVG/1.1/DTD/svg11.dtd">
<svg version="1.1" xmlns="http://www.w3.org/2000/svg" xmlns:xlink="http://www.w3.org/1999/xlink" x="0" y="0" width="256.064" height="235" viewBox="0, 0, 256.064, 235">
  <g id="Layer_1" transform="translate(-715.8, -737)">
    <path d="M745.3,878.5 L835.3,878.5" fill-opacity="0" stroke="#000000" stroke-width="15"/>
    <path d="M745.3,911.5 L898.3,911.5" fill-opacity="0" stroke="#000000" stroke-width="15"/>
    <path d="M745.3,943.5 L816.3,943.5" fill-opacity="0" stroke="#000000" stroke-width="15"/>
    <path d="M743.364,738.5 L971.364,738.5 L971.364,966.5 L743.364,966.5 L743.364,738.5 z" fill-opacity="0" stroke="#000000" stroke-width="0.5"/>
    <path d="M795.982,836.755 Q795.982,845.591 790.8,850.5 Q785.618,855.409 776.782,855.409 L762.818,855.409 Q752.891,855.409 748.145,851.264 Q743.4,847.118 743.4,839.7 Q743.4,834.355 746.073,831.136 Q748.745,827.918 752.455,827.373 L752.455,825.191 Q749.4,824.209 747.327,821.7 Q745.255,819.191 745.255,813.955 Q745.255,808.609 748.527,804.9 Q751.8,801.191 756.491,800.427 L756.491,798.464 Q752.127,796.827 749.836,793.445 Q747.545,790.064 747.545,786.027 L747.545,784.282 Q747.545,776.427 753.273,771.736 Q759,767.045 768.273,767.045 L795.982,767.045 L795.982,777.845 L782.455,775.555 L782.455,777.627 Q785.509,778.718 787.527,781.936 Q789.545,785.155 789.545,788.755 L789.545,790.609 Q789.545,798.355 783.709,802.827 Q777.873,807.3 768.818,807.3 L763.145,807.3 Q760.418,807.3 758.836,808.664 Q757.255,810.027 757.255,813.191 Q757.255,816.245 758.782,817.718 Q760.309,819.191 763.036,819.191 L777.327,819.191 Q785.836,819.191 790.909,823.391 Q795.982,827.591 795.982,836.755 z M768.491,798.355 Q771.655,798.355 773.018,796.173 Q774.382,793.991 774.382,789.736 L774.382,785.482 Q774.382,781.336 772.964,779.264 Q771.545,777.191 768.491,777.191 Q765.327,777.191 763.909,779.264 Q762.491,781.336 762.491,785.482 L762.491,789.736 Q762.491,793.991 763.8,796.173 Q765.109,798.355 768.491,798.355 z M765.218,845.264 L776.345,845.264 Q779.073,845.264 780.818,843.791 Q782.564,842.318 782.564,838.173 Q782.564,834.136 780.873,832.664 Q779.182,831.191 776.564,831.191 L759.109,831.191 L759.109,837.627 Q759.109,841.336 760.309,843.3 Q761.509,845.264 765.218,845.264 z" fill="#000000"/>
    <path d="M852.727,817.664 Q850.545,826.173 845.255,829.882 Q839.964,833.591 829.491,833.591 Q818.036,833.591 811.327,827.591 Q804.618,821.591 804.618,810.791 L804.618,788.209 Q804.618,777.736 811.109,771.845 Q817.6,765.955 828.509,765.955 Q839.527,765.955 845.909,772.009 Q852.291,778.064 852.291,789.409 L852.291,802.936 L821.309,802.936 L821.309,811.555 Q821.309,817.009 823.273,819.682 Q825.236,822.355 830.036,822.355 Q833.964,822.355 836.145,820.5 Q838.327,818.645 839.091,813.845 z M821.309,787.227 L821.309,793.445 L835.6,793.445 L835.6,787.555 Q835.6,781.664 834.018,779.264 Q832.436,776.864 828.509,776.864 Q824.473,776.864 822.891,779.155 Q821.309,781.445 821.309,787.227 z" fill="#000000"/>
    <path d="M863.436,832.5 L863.436,767.045 L880.127,767.045 L880.127,776.209 L882.636,776.209 Q884.382,771.409 888.2,768.682 Q892.018,765.955 896.927,765.955 Q903.582,765.955 907.345,770.973 Q911.109,775.991 911.109,784.936 L911.109,832.5 L894.418,832.5 L894.418,787.882 Q894.418,783.518 893,781.227 Q891.582,778.936 888.964,778.936 Q886.236,778.936 883.945,780.845 Q881.655,782.755 880.127,786.355 L880.127,832.5 z" fill="#000000"/>
    <path d="M956.291,808.5 Q951.927,808.5 948.545,805.391 Q945.164,802.282 942.327,795.409 Q939.927,789.409 938.455,785.809 Q936.982,782.209 935.018,782.209 Q933.273,782.209 932.4,784.882 Q931.527,787.555 931.527,794.1 L931.527,807.627 L921.491,807.627 L921.491,793.445 Q921.491,781.991 925.309,775.609 Q929.127,769.227 935.018,769.227 Q939.382,769.227 942.818,772.336 Q946.255,775.445 948.982,782.209 Q951.382,788.318 952.909,791.918 Q954.436,795.518 956.291,795.518 Q958.036,795.518 958.964,793.118 Q959.891,790.718 959.891,785.373 L959.891,771.082 L969.818,771.082 L969.818,786.136 Q969.818,796.609 966,802.555 Q962.182,808.5 956.291,808.5 z" fill="#000000"/>
  </g>
</svg>
