<?xml version="1.0" encoding="UTF-8"?>
<!DOCTYPE svg PUBLIC "-//W3C//DTD SVG 1.1//EN" "http://www.w3.org/Graphics/SVG/1.1/DTD/svg11.dtd">
<svg version="1.1" xmlns="http://www.w3.org/2000/svg" xmlns:xlink="http://www.w3.org/1999/xlink" x="0" y="0" width="225" height="225" viewBox="0, 0, 225, 225">
  <g id="Layer_1" transform="translate(-411, -618)">
    <g>
      <path d="M412.5,619.5 L635.5,619.5 L635.5,842.5 L412.5,842.5 L412.5,619.5 z" fill="#000000"/>
      <path d="M412.5,619.5 L635.5,619.5 L635.5,842.5 L412.5,842.5 L412.5,619.5 z" fill-opacity="0" stroke="#000000" stroke-width="1"/>
    </g>
    <path d="M436.5,757.5 L526.5,757.5" fill-opacity="0" stroke="#FFFFFF" stroke-width="10"/>
    <path d="M436.5,785.5 L589.5,785.5" fill-opacity="0" stroke="#FFFFFF" stroke-width="10"/>
    <path d="M436.5,813.5 L507.5,813.5" fill-opacity="0" stroke="#FFFFFF" stroke-width="10"/>
    <path d="M443.029,656.667 Q446.329,656.667 449.179,657.392 Q452.029,658.117 454.379,659.517 L468.129,659.517 L468.129,662.817 Q468.129,664.467 466.029,664.917 L460.279,665.717 Q461.979,668.967 461.979,672.967 Q461.979,676.667 460.554,679.692 Q459.129,682.717 456.629,684.867 Q454.129,687.017 450.629,688.167 Q447.129,689.317 443.029,689.317 Q439.429,689.317 436.279,688.467 Q434.679,689.467 433.854,690.617 Q433.029,691.767 433.029,692.867 Q433.029,694.667 434.504,695.592 Q435.979,696.517 438.379,696.917 Q440.779,697.317 443.854,697.417 Q446.929,697.517 450.154,697.742 Q453.379,697.967 456.454,698.517 Q459.529,699.067 461.929,700.317 Q464.329,701.567 465.804,703.767 Q467.279,705.967 467.279,709.467 Q467.279,712.717 465.654,715.767 Q464.029,718.817 460.979,721.192 Q457.929,723.567 453.504,724.992 Q449.079,726.417 443.529,726.417 Q437.979,726.417 433.829,725.317 Q429.679,724.217 426.929,722.367 Q424.179,720.517 422.804,718.092 Q421.429,715.667 421.429,713.017 Q421.429,709.267 423.779,706.667 Q426.129,704.067 430.179,702.517 Q427.929,701.517 426.629,699.842 Q425.329,698.167 425.329,695.317 Q425.329,694.217 425.729,693.042 Q426.129,691.867 426.954,690.717 Q427.779,689.567 428.979,688.517 Q430.179,687.467 431.779,686.667 Q428.029,684.567 425.929,681.067 Q423.829,677.567 423.829,672.967 Q423.829,669.267 425.254,666.242 Q426.679,663.217 429.229,661.092 Q431.779,658.967 435.304,657.817 Q438.829,656.667 443.029,656.667 z M459.079,710.917 Q459.079,709.067 458.029,707.917 Q456.979,706.767 455.204,706.117 Q453.429,705.467 451.079,705.192 Q448.729,704.917 446.104,704.767 Q443.479,704.617 440.779,704.467 Q438.079,704.317 435.579,703.967 Q432.779,705.267 431.004,707.217 Q429.229,709.167 429.229,711.867 Q429.229,713.567 430.104,715.042 Q430.979,716.517 432.779,717.592 Q434.579,718.667 437.304,719.292 Q440.029,719.917 443.729,719.917 Q447.329,719.917 450.179,719.267 Q453.029,718.617 455.004,717.417 Q456.979,716.217 458.029,714.567 Q459.079,712.917 459.079,710.917 z M443.029,683.417 Q445.729,683.417 447.779,682.667 Q449.829,681.917 451.229,680.567 Q452.629,679.217 453.329,677.342 Q454.029,675.467 454.029,673.217 Q454.029,668.567 451.204,665.817 Q448.379,663.067 443.029,663.067 Q437.629,663.067 434.804,665.817 Q431.979,668.567 431.979,673.217 Q431.979,675.467 432.704,677.342 Q433.429,679.217 434.829,680.567 Q436.229,681.917 438.279,682.667 Q440.329,683.417 443.029,683.417 z" fill="#FFFFFF"/>
    <path d="M497.329,656.717 Q501.879,656.717 505.754,658.242 Q509.629,659.767 512.454,662.642 Q515.279,665.517 516.879,669.742 Q518.479,673.967 518.479,679.367 Q518.479,681.467 518.029,682.167 Q517.579,682.867 516.329,682.867 L482.479,682.867 Q482.579,687.667 483.779,691.217 Q484.979,694.767 487.079,697.142 Q489.179,699.517 492.079,700.692 Q494.979,701.867 498.579,701.867 Q501.929,701.867 504.354,701.092 Q506.779,700.317 508.529,699.417 Q510.279,698.517 511.454,697.742 Q512.629,696.967 513.479,696.967 Q514.579,696.967 515.179,697.817 L517.679,701.067 Q516.029,703.067 513.729,704.542 Q511.429,706.017 508.804,706.967 Q506.179,707.917 503.379,708.392 Q500.579,708.867 497.829,708.867 Q492.579,708.867 488.154,707.092 Q483.729,705.317 480.504,701.892 Q477.279,698.467 475.479,693.417 Q473.679,688.367 473.679,681.817 Q473.679,676.517 475.304,671.917 Q476.929,667.317 479.979,663.942 Q483.029,660.567 487.429,658.642 Q491.829,656.717 497.329,656.717 z M497.529,663.267 Q491.079,663.267 487.379,666.992 Q483.679,670.717 482.779,677.317 L510.479,677.317 Q510.479,674.217 509.604,671.642 Q508.729,669.067 507.054,667.192 Q505.379,665.317 502.979,664.292 Q500.579,663.267 497.529,663.267 z" fill="#FFFFFF"/>
    <path d="M529.379,708.167 L529.379,657.517 L534.729,657.517 Q536.629,657.517 537.079,659.367 L537.779,664.867 Q541.079,661.217 545.179,658.967 Q549.279,656.717 554.629,656.717 Q558.779,656.717 561.954,658.092 Q565.129,659.467 567.254,661.992 Q569.379,664.517 570.479,668.067 Q571.579,671.617 571.579,675.917 L571.579,708.167 L562.629,708.167 L562.629,675.917 Q562.629,670.167 560.004,666.992 Q557.379,663.817 552.029,663.817 Q548.029,663.817 544.604,665.717 Q541.179,667.617 538.329,670.867 L538.329,708.167 z" fill="#FFFFFF"/>
    <path d="M613.279,677.517 Q616.529,677.517 618.354,675.392 Q620.179,673.267 620.229,669.767 L627.429,669.767 Q627.429,673.117 626.504,675.917 Q625.579,678.717 623.854,680.717 Q622.129,682.717 619.579,683.817 Q617.029,684.917 613.829,684.917 Q611.229,684.917 608.679,684.117 Q606.129,683.317 603.754,682.342 Q601.379,681.367 599.229,680.542 Q597.079,679.717 595.279,679.717 Q592.029,679.717 590.204,681.817 Q588.379,683.917 588.329,687.467 L581.129,687.467 Q581.129,684.117 582.054,681.317 Q582.979,678.517 584.704,676.517 Q586.429,674.517 588.954,673.392 Q591.479,672.267 594.729,672.267 Q597.329,672.267 599.879,673.092 Q602.429,673.917 604.804,674.892 Q607.179,675.867 609.329,676.692 Q611.479,677.517 613.279,677.517 z" fill="#FFFFFF"/>
  </g>
</svg>
