<?xml version="1.0" encoding="UTF-8"?>
<!DOCTYPE svg PUBLIC "-//W3C//DTD SVG 1.1//EN" "http://www.w3.org/Graphics/SVG/1.1/DTD/svg11.dtd">
<svg version="1.1" xmlns="http://www.w3.org/2000/svg" xmlns:xlink="http://www.w3.org/1999/xlink" x="0" y="0" width="274" height="274" viewBox="0, 0, 274, 274">
  <g id="Layer_1" transform="translate(-187, -115)">
    <path d="M324.5,360.5 C264.853,360.5 216.5,312.147 216.5,252.5 C216.5,192.853 264.853,144.5 324.5,144.5 C384.147,144.5 432.5,192.853 432.5,252.5 C432.5,312.147 384.147,360.5 324.5,360.5 z" fill-opacity="0" stroke="#000000" stroke-width="15"/>
    <path d="M324.5,360.5 C304.618,360.5 288.5,312.147 288.5,252.5 C288.5,192.853 304.618,144.5 324.5,144.5 C344.382,144.5 360.5,192.853 360.5,252.5 C360.5,312.147 344.382,360.5 324.5,360.5 z" fill-opacity="0" stroke="#000000" stroke-width="15"/>
    <path d="M224.5,215.5 L425.5,215.5" fill-opacity="0" stroke="#000000" stroke-width="15"/>
    <path d="M222.5,288.5 L426.5,288" fill-opacity="0" stroke="#000000" stroke-width="15"/>
  </g>
</svg>
