<?xml version="1.0" encoding="UTF-8"?>
<!DOCTYPE svg PUBLIC "-//W3C//DTD SVG 1.1//EN" "http://www.w3.org/Graphics/SVG/1.1/DTD/svg11.dtd">
<svg version="1.1" xmlns="http://www.w3.org/2000/svg" xmlns:xlink="http://www.w3.org/1999/xlink" x="0" y="0" width="480.175" height="480.251" viewBox="0, 0, 480.175, 480.251">
  <g id="Layer_1" transform="translate(-9.825, -9.749)">
    <path d="M434.86,199.795 C461.95,199.748 485.046,219.42 489.309,246.172 C493.573,272.924 477.736,298.801 451.974,307.177 C426.212,315.554 398.185,303.939 385.9,279.795 L376.78,279.795 C322.86,280.435 303.9,296.755 273.74,353.235 L271.98,356.435 L269.98,360.275 C252.06,393.795 241.9,409.315 223.42,425.795 C197.5,448.515 164.06,460.115 119.9,460.115 L113.9,460.115 C102.284,482.716 76.704,494.427 52.004,488.451 C27.305,482.475 9.907,460.367 9.907,434.955 C9.907,409.543 27.305,387.434 52.004,381.458 C76.704,375.482 102.284,387.193 113.9,409.795 L123.02,409.795 C177.9,409.155 196.62,392.195 227.82,333.155 L227.82,333.155 L229.82,329.315 C238.379,311.752 248.784,295.152 260.86,279.795 L113.9,279.795 C102.342,302.464 76.752,314.256 52.01,308.312 C27.268,302.369 9.825,280.24 9.825,254.795 C9.825,229.349 27.268,207.22 52.01,201.277 C76.752,195.334 102.342,207.125 113.9,229.795 L385.9,229.795 C394.928,212.08 412.832,200.634 432.7,199.875 z M434.86,9.795 C461.95,9.748 485.046,29.42 489.309,56.172 C493.573,82.924 477.736,108.801 451.974,117.177 C426.212,125.554 398.185,113.939 385.9,89.795 L113.9,89.795 C102.342,112.464 76.752,124.256 52.01,118.312 C27.268,112.369 9.825,90.24 9.825,64.795 C9.825,39.349 27.268,17.22 52.01,11.277 C76.752,5.334 102.342,17.125 113.9,39.795 L385.9,39.795 C395.269,21.374 414.193,9.778 434.86,9.795 z" fill="#000000"/>
  </g>
</svg>
