<?xml version="1.0" encoding="UTF-8"?>
<!DOCTYPE svg PUBLIC "-//W3C//DTD SVG 1.1//EN" "http://www.w3.org/Graphics/SVG/1.1/DTD/svg11.dtd">
<svg version="1.1" xmlns="http://www.w3.org/2000/svg" xmlns:xlink="http://www.w3.org/1999/xlink" x="0" y="0" width="258.025" height="239.682" viewBox="0, 0, 258.025, 239.682">
  <g id="Layer_1" transform="translate(-731.747, -876.818)">
    <path d="M761.247,1023 L851.247,1023" fill-opacity="0" stroke="#000000" stroke-width="15"/>
    <path d="M761.247,1056 L914.247,1056" fill-opacity="0" stroke="#000000" stroke-width="15"/>
    <path d="M761.247,1088 L832.247,1088" fill-opacity="0" stroke="#000000" stroke-width="15"/>
    <path d="M806.236,991.8 Q802.309,991.8 798.382,991.309 Q794.455,990.818 790.855,989.4 L792.491,977.509 Q795.764,978.818 798.655,979.255 Q801.546,979.691 803.945,979.691 Q808.964,979.691 811.691,976.964 Q814.418,974.236 814.418,967.8 L814.418,915.764 L794.236,915.764 L794.236,903.545 L831.109,903.545 L831.109,969.436 Q831.109,979.8 824.127,985.8 Q817.146,991.8 806.236,991.8 z M821.945,892.527 Q817.255,892.527 814.255,891 Q811.255,889.473 811.255,885.436 L811.255,884.236 Q811.255,880.2 814.255,878.509 Q817.255,876.818 821.945,876.818 Q826.746,876.818 829.691,878.509 Q832.636,880.2 832.636,884.236 L832.636,885.436 Q832.636,889.473 829.636,891 Q826.636,892.527 821.945,892.527 z" fill="#000000"/>
    <path d="M852.309,969 L852.309,956.782 L866.927,956.782 L866.927,915.764 L852.309,915.764 L852.309,903.545 L883.727,903.545 L883.727,956.782 L898.345,956.782 L898.345,969 z M876.2,892.527 Q871.509,892.527 868.509,891 Q865.509,889.473 865.509,885.436 L865.509,884.236 Q865.509,880.2 868.509,878.509 Q871.509,876.818 876.2,876.818 Q881,876.818 883.945,878.509 Q886.891,880.2 886.891,884.236 L886.891,885.436 Q886.891,889.473 883.891,891 Q880.891,892.527 876.2,892.527 z" fill="#000000"/>
    <path d="M944.309,970.091 Q934.164,970.091 928.436,964.255 Q922.709,958.418 922.709,948.273 L922.709,915.764 L911.255,915.764 L911.255,903.545 L922.709,903.545 L922.709,881.727 L939.4,881.727 L939.4,903.545 L957.182,903.545 L957.182,915.764 L939.4,915.764 L939.4,947.4 Q939.4,952.2 941.364,954.873 Q943.327,957.545 947.146,957.545 Q949.873,957.545 952.382,956.782 Q954.891,956.018 956.309,955.364 L957.945,967.473 Q956.091,968.564 952.273,969.327 Q948.455,970.091 944.309,970.091 z" fill="#000000"/>
  </g>
</svg>
