<?xml version="1.0" encoding="UTF-8"?>
<!DOCTYPE svg PUBLIC "-//W3C//DTD SVG 1.1//EN" "http://www.w3.org/Graphics/SVG/1.1/DTD/svg11.dtd">
<svg version="1.1" xmlns="http://www.w3.org/2000/svg" xmlns:xlink="http://www.w3.org/1999/xlink" x="0" y="0" width="256.064" height="235" viewBox="0, 0, 256.064, 235">
  <g id="Layer_1" transform="translate(-710.3, -737)">
    <path d="M739.8,878.5 L829.8,878.5" fill-opacity="0" stroke="#000000" stroke-width="15"/>
    <path d="M739.8,911.5 L892.8,911.5" fill-opacity="0" stroke="#000000" stroke-width="15"/>
    <path d="M739.8,943.5 L810.8,943.5" fill-opacity="0" stroke="#000000" stroke-width="15"/>
    <path d="M737.864,738.5 L965.864,738.5 L965.864,966.5 L737.864,966.5 L737.864,738.5 z" fill-opacity="0" stroke="#000000" stroke-width="0.5"/>
    <path d="M791.536,821.373 Q795.136,821.373 796.664,818.864 Q798.191,816.355 798.191,810.682 L798.191,787.555 Q798.191,782.973 796.718,780.955 Q795.246,778.936 792.627,778.936 Q790.336,778.936 788.046,780.518 Q785.755,782.1 783.9,785.591 L783.9,817.773 Q786.082,819.627 787.882,820.5 Q789.682,821.373 791.536,821.373 z M794.7,833.373 Q791.755,833.373 789.027,832.664 Q786.3,831.955 783.9,830.536 L783.9,854.318 L767.209,854.318 L767.209,767.045 L783.9,767.045 L783.9,776.209 L786.409,776.209 Q787.609,771.3 791.264,768.627 Q794.918,765.955 800.373,765.955 Q807.355,765.955 811.118,771.082 Q814.882,776.209 814.882,785.7 L814.882,810.791 Q814.882,821.264 809.482,827.318 Q804.082,833.373 794.7,833.373 z" fill="#000000"/>
    <path d="M827.9,832.5 L827.9,820.282 L842.518,820.282 L842.518,779.264 L827.9,779.264 L827.9,767.045 L859.318,767.045 L859.318,820.282 L873.936,820.282 L873.936,832.5 z M851.791,756.027 Q847.1,756.027 844.1,754.5 Q841.1,752.973 841.1,748.936 L841.1,747.736 Q841.1,743.7 844.1,742.009 Q847.1,740.318 851.791,740.318 Q856.591,740.318 859.536,742.009 Q862.482,743.7 862.482,747.736 L862.482,748.936 Q862.482,752.973 859.482,754.5 Q856.482,756.027 851.791,756.027 z" fill="#000000"/>
    <path d="M919.573,832.5 L909.973,813.518 L901.245,832.5 L884.773,832.5 L902.555,799.118 L886.3,767.045 L902.773,767.045 L911.173,783.409 L918.373,767.045 L934.846,767.045 L918.809,798.245 L936.373,832.5 z" fill="#000000"/>
  </g>
</svg>
