<?xml version="1.0" encoding="UTF-8"?>
<!DOCTYPE svg PUBLIC "-//W3C//DTD SVG 1.1//EN" "http://www.w3.org/Graphics/SVG/1.1/DTD/svg11.dtd">
<svg version="1.1" xmlns="http://www.w3.org/2000/svg" xmlns:xlink="http://www.w3.org/1999/xlink" x="0" y="0" width="256.064" height="235" viewBox="0, 0, 256.064, 235">
  <g id="Layer_1" transform="translate(-695.8, -737)">
    <path d="M725.3,878.5 L815.3,878.5" fill-opacity="0" stroke="#000000" stroke-width="15"/>
    <path d="M725.3,911.5 L878.3,911.5" fill-opacity="0" stroke="#000000" stroke-width="15"/>
    <path d="M725.3,943.5 L796.3,943.5" fill-opacity="0" stroke="#000000" stroke-width="15"/>
    <path d="M723.364,738.5 L951.364,738.5 L951.364,966.5 L723.364,966.5 L723.364,738.5 z" fill-opacity="0" stroke="#000000" stroke-width="0.5"/>
    <path d="M722.8,832.5 L722.8,767.045 L739.491,767.045 L739.491,776.209 L742,776.209 Q743.745,771.409 747.564,768.682 Q751.382,765.955 756.291,765.955 Q762.945,765.955 766.709,770.973 Q770.473,775.991 770.473,784.936 L770.473,832.5 L753.782,832.5 L753.782,787.882 Q753.782,783.518 752.364,781.227 Q750.945,778.936 748.327,778.936 Q745.6,778.936 743.309,780.845 Q741.018,782.755 739.491,786.355 L739.491,832.5 z" fill="#000000"/>
    <path d="M806.618,833.591 Q795.491,833.591 789.109,827.536 Q782.727,821.482 782.727,811.009 L782.727,788.973 Q782.727,778.173 789.109,772.064 Q795.491,765.955 806.618,765.955 Q817.636,765.955 824.018,772.173 Q830.4,778.391 830.4,789.191 L830.4,811.227 Q830.4,821.7 824.018,827.645 Q817.636,833.591 806.618,833.591 z M806.618,821.373 Q810.327,821.373 812.018,818.918 Q813.709,816.464 813.709,810.573 L813.709,789.409 Q813.709,783.409 812.018,780.791 Q810.327,778.173 806.618,778.173 Q802.909,778.173 801.164,780.791 Q799.418,783.409 799.418,789.3 L799.418,810.245 Q799.418,816.245 801.164,818.809 Q802.909,821.373 806.618,821.373 z" fill="#000000"/>
    <path d="M864.691,820.5 Q867.418,820.5 869.545,818.918 Q871.673,817.336 873.418,813.955 L873.418,781.664 Q871.236,779.809 869.436,778.991 Q867.636,778.173 865.782,778.173 Q862.182,778.173 860.655,780.627 Q859.127,783.082 859.127,788.864 L859.127,810.354 Q859.127,815.482 860.545,817.991 Q861.964,820.5 864.691,820.5 z M871.018,823.336 Q869.818,827.7 866.491,830.645 Q863.164,833.591 857.709,833.591 Q850.073,833.591 846.255,827.645 Q842.436,821.7 842.436,812.318 L842.436,788.755 Q842.436,778.173 847.836,772.173 Q853.236,766.173 862.727,766.173 Q865.564,766.173 868.291,766.882 Q871.018,767.591 873.418,769.009 L873.418,745.227 L890.109,745.227 L890.109,832.5 L873.418,832.5 L873.418,823.336 z" fill="#000000"/>
    <path d="M950.364,817.664 Q948.182,826.173 942.891,829.882 Q937.6,833.591 927.127,833.591 Q915.673,833.591 908.964,827.591 Q902.255,821.591 902.255,810.791 L902.255,788.209 Q902.255,777.736 908.745,771.845 Q915.236,765.955 926.146,765.955 Q937.164,765.955 943.545,772.009 Q949.927,778.064 949.927,789.409 L949.927,802.936 L918.945,802.936 L918.945,811.555 Q918.945,817.009 920.909,819.682 Q922.873,822.355 927.673,822.355 Q931.6,822.355 933.782,820.5 Q935.964,818.645 936.727,813.845 z M918.945,787.227 L918.945,793.445 L933.236,793.445 L933.236,787.555 Q933.236,781.664 931.655,779.264 Q930.073,776.864 926.146,776.864 Q922.109,776.864 920.527,779.155 Q918.945,781.445 918.945,787.227 z" fill="#000000"/>
  </g>
</svg>
