<?xml version="1.0" encoding="UTF-8"?>
<!DOCTYPE svg PUBLIC "-//W3C//DTD SVG 1.1//EN" "http://www.w3.org/Graphics/SVG/1.1/DTD/svg11.dtd">
<svg version="1.1" xmlns="http://www.w3.org/2000/svg" xmlns:xlink="http://www.w3.org/1999/xlink" x="0" y="0" width="256.064" height="235" viewBox="0, 0, 256.064, 235">
  <g id="Layer_1">
    <path d="M29.5,141.5 L119.5,141.5" fill-opacity="0" stroke="#000000" stroke-width="15"/>
    <path d="M29.5,174.5 L182.5,174.5" fill-opacity="0" stroke="#000000" stroke-width="15"/>
    <path d="M29.5,206.5 L100.5,206.5" fill-opacity="0" stroke="#000000" stroke-width="15"/>
    <path d="M27.564,1.5 L255.564,1.5 L255.564,229.5 L27.564,229.5 L27.564,1.5 z" fill-opacity="0" stroke="#000000" stroke-width="0.5"/>
    <path d="M51.318,96.591 Q39.536,96.591 33.155,90.536 Q26.773,84.482 26.773,73.573 L26.773,52.082 Q26.773,41.064 33.1,35.009 Q39.427,28.955 51.209,28.955 Q61.9,28.955 67.573,34.682 Q73.245,40.409 74.555,52.409 L58.409,53.5 Q57.973,46.3 56.282,43.791 Q54.591,41.282 50.773,41.282 Q46.845,41.282 45.155,43.736 Q43.464,46.191 43.464,52.736 L43.464,73.027 Q43.464,79.464 45.155,81.918 Q46.845,84.373 50.882,84.373 Q54.809,84.373 56.445,82.3 Q58.082,80.227 58.409,74.227 L74.555,75.318 Q74.009,86.336 68.336,91.464 Q62.664,96.591 51.318,96.591 z" fill="#000000"/>
    <path d="M172.209,96.591 Q160.427,96.591 154.046,90.536 Q147.664,84.482 147.664,73.573 L147.664,52.082 Q147.664,41.064 153.991,35.009 Q160.318,28.955 172.1,28.955 Q182.791,28.955 188.464,34.682 Q194.136,40.409 195.446,52.409 L179.3,53.5 Q178.864,46.3 177.173,43.791 Q175.482,41.282 171.664,41.282 Q167.736,41.282 166.046,43.736 Q164.355,46.191 164.355,52.736 L164.355,73.027 Q164.355,79.464 166.046,81.918 Q167.736,84.373 171.773,84.373 Q175.7,84.373 177.336,82.3 Q178.973,80.227 179.3,74.227 L195.446,75.318 Q194.9,86.336 189.227,91.464 Q183.555,96.591 172.209,96.591 z" fill="#000000"/>
    <path d="M51.455,96.591 Q40.328,96.591 33.946,90.536 Q27.564,84.482 27.564,74.009 L27.564,51.973 Q27.564,41.173 33.946,35.064 Q40.328,28.955 51.455,28.955 Q62.473,28.955 68.855,35.173 Q75.237,41.391 75.237,52.191 L75.237,74.227 Q75.237,84.7 68.855,90.645 Q62.473,96.591 51.455,96.591 z M51.455,84.373 Q55.164,84.373 56.855,81.918 Q58.546,79.464 58.546,73.573 L58.546,52.409 Q58.546,46.409 56.855,43.791 Q55.164,41.173 51.455,41.173 Q47.746,41.173 46,43.791 Q44.255,46.409 44.255,52.3 L44.255,73.245 Q44.255,79.245 46,81.809 Q47.746,84.373 51.455,84.373 z" fill="#000000"/>
    <path d="M109.923,97.373 Q103.159,97.373 97.05,95.3 Q90.941,93.227 86.796,90.391 L90.505,79.809 Q94.868,82.318 100.159,84.227 Q105.45,86.136 109.923,86.136 Q114.505,86.136 116.796,84.391 Q119.086,82.645 119.086,79.155 Q119.086,75.336 116.959,73.645 Q114.832,71.955 107.305,69.445 Q96.614,65.845 92.523,61.373 Q88.432,56.9 88.432,49.045 Q88.432,40.536 94.541,35.245 Q100.65,29.955 111.014,29.955 Q117.45,29.955 122.959,31.809 Q128.468,33.664 132.396,36.5 L129.559,46.755 Q125.523,44.464 120.996,42.827 Q116.468,41.191 112.65,41.191 Q109.05,41.191 107.032,42.718 Q105.014,44.245 105.014,47.627 Q105.014,51.009 107.577,52.755 Q110.141,54.5 119.196,57.664 Q128.468,60.936 132.123,65.355 Q135.777,69.773 135.777,77.736 Q135.777,86.245 129.014,91.809 Q122.25,97.373 109.923,97.373 z" fill="#000000"/>
  </g>
</svg>
