<?xml version="1.0" encoding="UTF-8"?>
<!DOCTYPE svg PUBLIC "-//W3C//DTD SVG 1.1//EN" "http://www.w3.org/Graphics/SVG/1.1/DTD/svg11.dtd">
<svg version="1.1" xmlns="http://www.w3.org/2000/svg" xmlns:xlink="http://www.w3.org/1999/xlink" x="0" y="0" width="288.375" height="277" viewBox="0, 0, 288.375, 277">
  <g id="Layer_1" transform="translate(-215.625, -287)">
    <g>
      <path d="M360.125,432.5 C320.361,432.5 288.125,400.264 288.125,360.5 C288.125,320.736 320.361,288.5 360.125,288.5 C399.889,288.5 432.125,320.736 432.125,360.5 C432.125,400.264 399.889,432.5 360.125,432.5 z" fill="#000000"/>
      <path d="M360.125,432.5 C320.361,432.5 288.125,400.264 288.125,360.5 C288.125,320.736 320.361,288.5 360.125,288.5 C399.889,288.5 432.125,320.736 432.125,360.5 C432.125,400.264 399.889,432.5 360.125,432.5 z" fill-opacity="0" stroke="#000000" stroke-width="1"/>
    </g>
    <path d="M452.619,444 C484.836,444.705 503.357,474.341 504,504 L504,564 L456,564 L456,563.835 C454.388,564.026 455.51,563.915 452.619,564 L267.006,564 C264.115,563.915 265.237,564.026 263.625,563.835 L263.625,564 L215.625,564 L215.625,504 C215.563,474.465 235.672,444.924 267.006,444 L452.619,444 z" fill="#000000"/>
  </g>
</svg>
