<?xml version="1.0" encoding="UTF-8"?>
<!DOCTYPE svg PUBLIC "-//W3C//DTD SVG 1.1//EN" "http://www.w3.org/Graphics/SVG/1.1/DTD/svg11.dtd">
<svg version="1.1" xmlns="http://www.w3.org/2000/svg" xmlns:xlink="http://www.w3.org/1999/xlink" x="0" y="0" width="256.064" height="235" viewBox="0, 0, 256.064, 235">
  <g id="Layer_1" transform="translate(-713.8, -737)">
    <path d="M743.3,878.5 L833.3,878.5" fill-opacity="0" stroke="#000000" stroke-width="15"/>
    <path d="M743.3,911.5 L896.3,911.5" fill-opacity="0" stroke="#000000" stroke-width="15"/>
    <path d="M743.3,943.5 L814.3,943.5" fill-opacity="0" stroke="#000000" stroke-width="15"/>
    <path d="M741.364,738.5 L969.364,738.5 L969.364,966.5 L741.364,966.5 L741.364,738.5 z" fill-opacity="0" stroke="#000000" stroke-width="0.5"/>
    <path d="M835.527,832.5 L813.382,832.5 L799.309,767.045 L815.018,767.045 L824.836,817.336 L834.546,767.045 L849.491,767.045 z" fill="#000000"/>
    <path d="M884.327,833.591 Q871.891,833.591 865.782,827.809 Q859.673,822.027 859.673,810.245 L859.673,806.318 Q859.673,798.791 863.273,793.882 Q866.873,788.973 873.309,788.1 L873.309,784.936 Q868.182,784.282 864.745,780.3 Q861.309,776.318 861.309,769.773 L861.309,764.755 Q861.309,754.282 866.982,749.209 Q872.655,744.136 884.327,744.136 Q896,744.136 901.673,749.209 Q907.345,754.282 907.345,764.755 L907.345,769.773 Q907.345,776.318 903.855,780.3 Q900.364,784.282 895.236,784.936 L895.236,788.1 Q901.673,788.973 905.327,793.936 Q908.982,798.9 908.982,806.318 L908.982,810.245 Q908.982,822.027 902.873,827.809 Q896.764,833.591 884.327,833.591 z M884.327,780.573 Q887.818,780.573 889.236,778.5 Q890.655,776.427 890.655,771.3 L890.655,765.627 Q890.655,760.609 889.236,758.591 Q887.818,756.573 884.327,756.573 Q880.836,756.573 879.418,758.591 Q878,760.609 878,765.627 L878,771.3 Q878,776.427 879.418,778.5 Q880.836,780.573 884.327,780.573 z M884.327,821.155 Q888.691,821.155 890.491,818.536 Q892.291,815.918 892.291,809.373 L892.291,804.682 Q892.291,798.136 890.491,795.464 Q888.691,792.791 884.327,792.791 Q879.964,792.791 878.164,795.464 Q876.364,798.136 876.364,804.682 L876.364,809.373 Q876.364,815.918 878.164,818.536 Q879.964,821.155 884.327,821.155 z" fill="#000000"/>
  </g>
</svg>
