<?xml version="1.0" encoding="UTF-8"?>
<!DOCTYPE svg PUBLIC "-//W3C//DTD SVG 1.1//EN" "http://www.w3.org/Graphics/SVG/1.1/DTD/svg11.dtd">
<svg version="1.1" xmlns="http://www.w3.org/2000/svg" xmlns:xlink="http://www.w3.org/1999/xlink" x="0" y="0" width="132.03" height="117.631" viewBox="0, 0, 132.03, 117.631">
  <g id="Layer_1" transform="translate(-519.97, -379.369)">
    <path d="M553.485,476.5 C536.903,458.628 537.563,430.803 554.974,413.737 C572.384,396.671 600.216,396.567 617.754,413.502 C635.292,430.437 636.16,458.256 619.713,476.252" fill-opacity="0" stroke="#000000" stroke-width="10"/>
    <path d="M572.765,465.5 L566.605,465.5 L555.385,437.285 L561.022,437.285 Q561.765,437.285 562.274,437.643 Q562.782,438 562.975,438.55 L568.42,453.62 Q568.888,454.94 569.204,456.205 Q569.52,457.47 569.767,458.735 Q570.015,457.47 570.331,456.205 Q570.647,454.94 571.142,453.62 L576.725,438.55 Q576.917,438 577.412,437.643 Q577.907,437.285 578.595,437.285 L583.957,437.285 z" fill="#000000"/>
    <path d="M598.293,465.94 Q595.213,465.94 592.669,465.115 Q590.125,464.29 588.31,462.777 Q586.495,461.265 585.491,459.12 Q584.488,456.975 584.488,454.335 Q584.488,450.815 586.22,448.381 Q587.953,445.948 591.61,444.765 Q588.695,443.555 587.251,441.328 Q585.807,439.1 585.807,435.965 Q585.807,433.71 586.729,431.758 Q587.65,429.805 589.3,428.361 Q590.95,426.918 593.246,426.106 Q595.543,425.295 598.293,425.295 Q601.043,425.295 603.339,426.106 Q605.635,426.918 607.285,428.361 Q608.935,429.805 609.856,431.758 Q610.778,433.71 610.778,435.965 Q610.778,439.1 609.32,441.328 Q607.863,443.555 604.975,444.765 Q608.633,445.948 610.365,448.381 Q612.098,450.815 612.098,454.335 Q612.098,456.975 611.094,459.12 Q610.09,461.265 608.275,462.777 Q606.46,464.29 603.916,465.115 Q601.372,465.94 598.293,465.94 z M598.293,460.633 Q599.97,460.633 601.235,460.151 Q602.5,459.67 603.366,458.818 Q604.233,457.965 604.673,456.783 Q605.113,455.6 605.113,454.225 Q605.113,450.953 603.298,449.275 Q601.483,447.598 598.293,447.598 Q595.103,447.598 593.288,449.275 Q591.473,450.953 591.473,454.225 Q591.473,455.6 591.913,456.783 Q592.353,457.965 593.219,458.818 Q594.085,459.67 595.35,460.151 Q596.615,460.633 598.293,460.633 z M598.293,442.263 Q599.943,442.263 601.07,441.74 Q602.198,441.217 602.885,440.351 Q603.573,439.485 603.861,438.371 Q604.15,437.258 604.15,436.075 Q604.15,434.948 603.793,433.93 Q603.435,432.913 602.72,432.129 Q602.005,431.345 600.905,430.878 Q599.805,430.41 598.293,430.41 Q596.78,430.41 595.68,430.878 Q594.58,431.345 593.851,432.129 Q593.122,432.913 592.779,433.93 Q592.435,434.948 592.435,436.075 Q592.435,437.258 592.724,438.371 Q593.013,439.485 593.7,440.351 Q594.388,441.217 595.515,441.74 Q596.643,442.263 598.293,442.263 z" fill="#000000"/>
  </g>
</svg>
