<svg width="11" height="11" viewBox="0 0 11 11" fill="none" xmlns="http://www.w3.org/2000/svg">
<path fill-rule="evenodd" clip-rule="evenodd" d="M6.17315 7.45755C6.17344 7.45747 6.17393 7.4597 6.17379 7.46445C6.1728 7.46 6.17287 7.45762 6.17315 7.45755ZM6.16142 7.51729C6.14107 7.51341 6.11491 7.50993 6.08178 7.50787C5.91133 7.49725 5.65555 7.54061 5.38457 7.68378C5.11359 7.82694 4.94465 8.00796 4.86948 8.14834C4.85487 8.17563 4.84509 8.1981 4.83858 8.21617C4.85893 8.22004 4.88509 8.22353 4.91822 8.22559C5.08867 8.23621 5.34445 8.19285 5.61543 8.04968C5.88641 7.90652 6.05535 7.7255 6.13052 7.58512C6.14513 7.55783 6.15491 7.53536 6.16142 7.51729ZM4.77617 8.19559C4.77638 8.19541 4.77867 8.19654 4.78239 8.19955C4.77782 8.19728 4.77596 8.19578 4.77617 8.19559ZM4.82685 8.27591C4.82656 8.27599 4.82607 8.27376 4.82621 8.26901C4.8272 8.27346 4.82713 8.27584 4.82685 8.27591ZM6.21761 7.53391C6.22218 7.53618 6.22404 7.53768 6.22383 7.53787C6.22362 7.53805 6.22133 7.53692 6.21761 7.53391ZM6.04232 8.72627C6.81447 8.31833 7.19761 7.6028 6.8981 7.12809C6.59859 6.65338 5.72983 6.59925 4.95768 7.00719C4.18553 7.41513 3.80239 8.13066 4.1019 8.60537C4.40141 9.08008 5.27017 9.13421 6.04232 8.72627Z" fill="black"/>
</svg>
