<svg width="11" height="11" viewBox="0 0 11 11" fill="none" xmlns="http://www.w3.org/2000/svg">
<path fill-rule="evenodd" clip-rule="evenodd" d="M6.93059 2H5.7644V6.74824C5.50224 6.78065 5.22421 6.86641 4.95768 7.00721C4.18553 7.41515 3.80239 8.13068 4.1019 8.60539C4.40141 9.0801 5.27017 9.13423 6.04232 8.72629C6.78379 8.33456 7.16655 7.6592 6.93059 7.1858V2ZM6.17315 7.45757C6.17344 7.45749 6.17393 7.45972 6.17379 7.46447C6.1728 7.46002 6.17287 7.45764 6.17315 7.45757ZM6.08178 7.50789C6.11491 7.50995 6.14107 7.51344 6.16142 7.51732C6.15491 7.53538 6.14513 7.55785 6.13052 7.58515C6.05535 7.72553 5.88641 7.90654 5.61543 8.04971C5.34445 8.19287 5.08867 8.23624 4.91822 8.22562C4.88509 8.22355 4.85893 8.22007 4.83858 8.21619C4.84509 8.19813 4.85487 8.17565 4.86948 8.14836C4.94465 8.00798 5.11359 7.82696 5.38457 7.6838C5.65555 7.54064 5.91133 7.49727 6.08178 7.50789ZM4.77617 8.19562C4.77638 8.19543 4.77867 8.19656 4.78239 8.19957C4.77782 8.19731 4.77596 8.1958 4.77617 8.19562ZM4.82685 8.27594C4.82656 8.27601 4.82607 8.27379 4.82621 8.26903C4.8272 8.27349 4.82713 8.27586 4.82685 8.27594ZM6.21761 7.53394C6.22218 7.5362 6.22404 7.5377 6.22383 7.53789C6.22362 7.53808 6.22133 7.53695 6.21761 7.53394Z" fill="black"/>
</svg>
