<svg width="17" height="11" viewBox="0 0 17 11" fill="none" xmlns="http://www.w3.org/2000/svg">
<path fill-rule="evenodd" clip-rule="evenodd" d="M11.2361 3C10.6679 3 10.1485 3.321 9.89443 3.82918L8 7.61803C7.57652 8.46499 6.71086 9 5.76393 9H2V8H5.76393C6.33209 8 6.85148 7.679 7.10557 7.17082L9 3.38197C9.42348 2.53501 10.2891 2 11.2361 2H15V3H11.2361Z" fill="black"/>
<path d="M5.34909 2C5.98006 2 6.5877 2.23859 7.0501 2.6679L7.47165 3.05929L7.01055 3.99574L6.3697 3.40074C6.09226 3.14315 5.72768 3 5.34909 3H2V2H5.34909Z" fill="black"/>
<path d="M9.67462 8.11512L10.1395 7.17092L10.5494 7.57206C10.8298 7.84638 11.2064 8 11.5986 8H15V9H11.5986C10.9449 9 10.3172 8.74397 9.85001 8.28677L9.67462 8.11512Z" fill="black"/>
</svg>
