<svg width="19" height="11" viewBox="0 0 19 11" fill="none" xmlns="http://www.w3.org/2000/svg">
<path fill-rule="evenodd" clip-rule="evenodd" d="M8.79103 5.77735C7.79404 7.27283 6.5366 9 4 9H2V8H4C5.9634 8 6.95596 6.72717 7.95897 5.22265C8.01981 5.13139 8.08095 5.03888 8.14254 4.94566L8.14283 4.94523L8.1429 4.94512L8.1429 4.94512C8.57125 4.29687 9.02215 3.6145 9.5527 3.08395C10.1804 2.45621 10.9569 2 12 2H13V3H12C11.2931 3 10.7571 3.29379 10.2598 3.79105C9.80633 4.24453 9.41665 4.83309 8.98041 5.49197L8.98041 5.49198L8.98041 5.49198C8.91833 5.58574 8.85531 5.68093 8.79103 5.77735ZM14 2H15V3H14V2ZM17 2H16V3H17V2Z" fill="black"/>
</svg>
