<svg width="19" height="11" viewBox="0 0 19 11" fill="none" xmlns="http://www.w3.org/2000/svg">
<path fill-rule="evenodd" clip-rule="evenodd" d="M2 2H3V3H2V2ZM5 2H4V3H5V2ZM6 2H7C8.04314 2 8.81957 2.45621 9.4473 3.08395C9.97785 3.6145 10.4288 4.29687 10.8571 4.94512C10.9188 5.03853 10.9801 5.13122 11.041 5.22265C12.044 6.72717 13.0366 8 15 8H17V9H15C12.4634 9 11.206 7.27283 10.209 5.77735C10.1451 5.68156 10.0825 5.58698 10.0208 5.49382L10.0199 5.49239L10.0196 5.49198C9.58335 4.8331 9.19367 4.24453 8.7402 3.79105C8.24293 3.29379 7.70686 3 7 3H6V2Z" fill="black"/>
</svg>
