<svg width="31" height="31" viewBox="0 0 31 31" fill="none" xmlns="http://www.w3.org/2000/svg">
<g clip-path="url(#clip0_2260_484)">
<path fill-rule="evenodd" clip-rule="evenodd" d="M15.5003 0.786377C13.5215 0.786377 11.9794 1.79757 10.7047 3.32819C9.44269 4.84354 8.39153 6.92644 7.37751 9.20743C6.95539 10.157 6.53813 11.1433 6.11339 12.1473C4.46978 16.0324 2.71425 20.182 0.132202 23.4891L1.11747 24.2584C3.81227 20.8069 5.65203 16.4537 7.29966 12.5552C7.71502 11.5724 8.11817 10.6185 8.51973 9.71521C9.53073 7.44102 10.5236 5.49895 11.6652 4.12813C12.7942 2.77257 14.0154 2.03638 15.5003 2.03638C16.9852 2.03638 18.2064 2.77257 19.3353 4.12812C20.4769 5.49894 21.4698 7.44102 22.4808 9.71521C22.8823 10.6185 23.2855 11.5724 23.7009 12.5552C25.3485 16.4537 27.1882 20.8069 29.883 24.2584L30.8683 23.4891C28.2862 20.182 26.5307 16.0324 24.8871 12.1473L24.8871 12.1472C24.4624 11.1432 24.0451 10.1569 23.623 9.20743C22.609 6.92644 21.5578 4.84354 20.2958 3.32819C19.0211 1.79757 17.479 0.786377 15.5003 0.786377ZM15.9113 13.2581C15.8861 12.9463 15.6343 12.7011 15.3219 12.6843C15.0095 12.6675 14.7328 12.8842 14.6743 13.1915L13.0036 21.9665L12.1177 18.1747C12.0572 17.9159 11.8397 17.7236 11.5754 17.6955C11.311 17.6673 11.0578 17.8094 10.9441 18.0497L9.35842 21.4014L9.09113 21.9664L10.2211 22.501L10.4883 21.936L11.308 20.2034L12.4574 25.1228C12.5246 25.4103 12.7838 25.6116 13.079 25.6054C13.3741 25.5993 13.6248 25.3875 13.68 25.0975L15.0375 17.9672L16.011 30.02C16.0362 30.3322 16.2887 30.5776 16.6016 30.5938C16.9145 30.61 17.191 30.3921 17.2484 30.0841L18.9367 21.0207L19.7905 23.9698C19.8646 24.2256 20.0926 24.4064 20.3585 24.4202C20.6245 24.434 20.8699 24.2777 20.97 24.031L22.3722 20.574L22.6071 19.9949L21.4488 19.525L21.2139 20.1042L20.4896 21.8897L19.405 18.1431C19.3244 17.865 19.0634 17.6786 18.7741 17.6927C18.4849 17.7068 18.2432 17.9178 18.1902 18.2025L16.8791 25.2409L15.9113 13.2581Z" fill="black"/>
</g>
<defs>
<clipPath id="clip0_2260_484">
<rect width="31" height="31" fill="white"/>
</clipPath>
</defs>
</svg>
