<svg width="31" height="31" viewBox="0 0 31 31" fill="none" xmlns="http://www.w3.org/2000/svg">
<g clip-path="url(#clip0_2260_463)">
<path fill-rule="evenodd" clip-rule="evenodd" d="M27.2496 3.16944L29.5533 0.865723L30.4372 1.74961L28.1335 4.05332L27.2496 3.16944ZM22.6553 7.63568L25.0418 5.2492L25.9257 6.13308L23.5392 8.51956L22.6553 7.63568ZM15.1187 14.9162L17.4692 12.5657L18.3531 13.4496L16.0026 15.8001L15.1187 14.9162ZM10.2326 19.6192L12.7514 17.1555L13.6255 18.0491L11.1066 20.5128L10.2326 19.6192ZM5.36914 24.3546L7.88799 21.8909L8.76204 22.7845L6.24318 25.2482L5.36914 24.3546ZM0.552612 29.0431L3.07147 26.5794L3.94551 27.473L1.42666 29.9367L0.552612 29.0431ZM19.8751 29.5C19.8751 29.8452 20.1549 30.125 20.5001 30.125H29.5001C29.8453 30.125 30.1251 29.8452 30.1251 29.5V16.5V15.875H28.8751V16.5V28.875H21.1251V1.50004C21.1251 1.15486 20.8453 0.87504 20.5001 0.87504H1.50012C1.15495 0.87504 0.875124 1.15486 0.875124 1.50004V15.5V16.125H2.12512V15.5V2.12504H19.8751V29.5ZM30.125 8.50004V7.87504H28.875V8.50004V10.5V11.125H30.125V10.5V8.50004Z" fill="black"/>
</g>
<defs>
<clipPath id="clip0_2260_463">
<rect width="31" height="31" fill="white"/>
</clipPath>
</defs>
</svg>
