<svg width="31" height="31" viewBox="0 0 31 31" fill="none" xmlns="http://www.w3.org/2000/svg">
<g clip-path="url(#clip0_2260_461)">
<path d="M1.05847 15.5126C1.14835 15.1524 1.23822 14.7989 1.3281 14.4521C1.5192 13.7148 6.53193 13.0079 6.72303 12.3313C6.93306 11.5877 4.71096 11.1147 3.62068 10.365C2.5304 9.61518 2.32382 8.77627 3.62068 8.04166C4.27579 7.67057 5.48943 7.20012 5.48943 6.46645C5.48943 5.73278 4.29197 5.40114 4.71471 4.56342C5.90715 2.20043 7.09959 1.01929 8.29203 1.02002C9.48228 1.02075 10.6725 2.199 11.8628 4.55479C12.4985 5.81309 13.9983 6.01649 14.3156 6.46645C15.4731 8.1079 11.2455 8.95765 14.0746 10.2104C15.0085 10.6239 19.2921 11.5877 19.5021 12.3313C19.6932 13.0079 12.3074 13.7148 12.4985 14.4521C12.618 14.913 15.4927 15.3932 15.6121 15.866C16.1565 18.0211 16.701 19.9298 17.2454 21.5922C17.3984 22.0595 17.5515 22.5073 17.7046 22.9356C17.8825 23.4331 20.6416 23.7689 20.6416 24.3495C20.6416 25.1445 16.9063 25.2974 16.9063 26.031C16.9063 26.7647 19.3225 26.7536 19.5618 27.1773C20.6261 29.0617 21.6902 30.0044 22.7547 30.0051C23.82 30.0057 24.8854 29.0632 25.9508 27.1773C26.1902 26.7536 24.8589 26.031 24.8589 25.5113C24.8589 24.6554 29.5582 25.1445 29.5582 24.3495C29.5582 23.5544 27.6414 23.4015 27.8251 22.8855C28.5461 20.86 29.2672 18.4024 29.9883 15.5126" stroke="black" stroke-width="1.25"/>
</g>
<defs>
<clipPath id="clip0_2260_461">
<rect width="31" height="31" fill="white"/>
</clipPath>
</defs>
</svg>
