<svg width="31" height="31" viewBox="0 0 31 31" fill="none" xmlns="http://www.w3.org/2000/svg">
<g clip-path="url(#clip0_2260_511)">
<path fill-rule="evenodd" clip-rule="evenodd" d="M18.5646 0.0817871L16.4507 7.66623L17.6549 8.00182L19.7687 0.417383L18.5646 0.0817871ZM4.18657 5.20002L0.157104 1.09682L1.04897 0.220982L5.07843 4.32418L4.18657 5.20002ZM13.6244 14.4666L6.65461 7.63157L7.52983 6.7391L14.5192 13.5933C14.813 13.4413 15.1465 13.3555 15.5001 13.3555C15.9049 13.3555 16.2835 13.468 16.6062 13.6635L25.3828 5.05642L26.258 5.94888L17.441 14.5957C17.5593 14.8512 17.6287 15.134 17.6371 15.4321L30.8079 19.1952L30.4645 20.3971L17.3064 16.6376C17.0357 17.064 16.6182 17.3881 16.125 17.5386L16.125 29.9998V30.6248H14.875V29.9998L14.875 17.5385C14.7462 17.4992 14.6225 17.4481 14.5053 17.3863L5.59544 25.9808L4.72762 25.0812L13.6169 16.5065C13.4544 16.205 13.3621 15.86 13.3621 15.4934C13.3621 15.1213 13.4572 14.7714 13.6244 14.4666ZM19.987 19.2175L30.7288 29.7048L29.8556 30.5992L19.1138 20.1119L19.987 19.2175ZM20.7073 13.114L30.347 9.8277L30.7503 11.0108L21.1106 14.2971L20.7073 13.114ZM1.053 30.721L3.55327 28.1567L2.65827 27.284L0.158004 29.8484L1.053 30.721ZM27.6857 2.54303L29.9713 0.227201L30.861 1.10527L28.5753 3.4211L27.6857 2.54303ZM14.2379 11.3086L9.94391 0.573383L11.1045 0.109156L15.3985 10.8444L14.2379 11.3086ZM0.359514 13.9301L11.314 15.4637L11.4873 14.2258L0.532827 12.6922L0.359514 13.9301ZM4.73629 10.3481L0.223282 7.7629L0.84461 6.67826L5.35762 9.26349L4.73629 10.3481ZM0.807461 21.4289L8.56309 18.3617L8.10339 17.1993L0.347754 20.2665L0.807461 21.4289ZM21.9649 30.3599L19.029 24.1379L20.1594 23.6044L23.0954 29.8264L21.9649 30.3599ZM11.7953 22.7232L8.64675 30.1446L9.79748 30.6328L12.946 23.2114L11.7953 22.7232Z" fill="black"/>
</g>
<defs>
<clipPath id="clip0_2260_511">
<rect width="31" height="31" fill="white"/>
</clipPath>
</defs>
</svg>
