<svg width="31" height="31" viewBox="0 0 31 31" fill="none" xmlns="http://www.w3.org/2000/svg">
<g clip-path="url(#clip0_2260_474)">
<path fill-rule="evenodd" clip-rule="evenodd" d="M4.99995 0.875C5.2039 0.875 5.39502 0.974507 5.51197 1.14159L9.01197 6.14159L9.37038 6.65361L8.34634 7.37043L7.98793 6.85841L4.99995 2.58987L2.01197 6.85841L1.65356 7.37043L0.629517 6.65361L0.987931 6.14159L4.48793 1.14159C4.60489 0.974507 4.796 0.875 4.99995 0.875ZM19 0.875C19.2039 0.875 19.395 0.974507 19.512 1.14159L22.5 5.41013L25.4879 1.14159C25.6049 0.974507 25.796 0.875 26 0.875C26.2039 0.875 26.395 0.974507 26.512 1.14159L30.012 6.14159L30.3704 6.65361L29.3463 7.37043L28.9879 6.85841L26 2.58987L23.012 6.85841C22.895 7.02549 22.7039 7.125 22.5 7.125C22.296 7.125 22.1049 7.02549 21.9879 6.85841L19 2.58987L16.012 6.85841L15.6536 7.37043L14.6295 6.65361L14.9879 6.14159L18.4879 1.14159C18.6049 0.974507 18.796 0.875 19 0.875ZM12 8.375C12.2039 8.375 12.395 8.47451 12.512 8.64159L15.5 12.9101L18.4879 8.64159C18.6049 8.47451 18.796 8.375 19 8.375C19.2039 8.375 19.395 8.47451 19.512 8.64159L22.5 12.9101L25.4879 8.64159C25.6049 8.47451 25.796 8.375 26 8.375C26.2039 8.375 26.395 8.47451 26.512 8.64159L30.012 13.6416L30.3704 14.1536L29.3463 14.8704L28.9879 14.3584L26 10.0899L23.012 14.3584C22.895 14.5255 22.7039 14.625 22.5 14.625C22.296 14.625 22.1049 14.5255 21.9879 14.3584L19 10.0899L16.012 14.3584C15.895 14.5255 15.7039 14.625 15.5 14.625C15.296 14.625 15.1049 14.5255 14.9879 14.3584L12 10.0899L9.01197 14.3584L8.65356 14.8704L7.62952 14.1536L7.98793 13.6416L11.4879 8.64159C11.6049 8.47451 11.796 8.375 12 8.375ZM4.99982 15.875C5.20376 15.875 5.39488 15.9745 5.51184 16.1416L8.49999 20.4101L11.4878 16.1416C11.6048 15.9745 11.7959 15.875 11.9998 15.875C12.2038 15.875 12.3949 15.9745 12.5118 16.1416L16.012 21.1416L16.3705 21.6536L15.3464 22.3704L14.988 21.8584L11.9999 17.5899L9.01205 21.8584C8.8951 22.0255 8.70398 22.125 8.50003 22.125C8.29609 22.125 8.10497 22.0255 7.98801 21.8584L4.99986 17.5899L2.01205 21.8584L1.65365 22.3704L0.629588 21.6536L0.987989 21.1416L4.4878 16.1416C4.60475 15.9745 4.79587 15.875 4.99982 15.875ZM25.9998 15.875C26.2038 15.875 26.3949 15.9745 26.5118 16.1416L30.012 21.1416L30.3705 21.6536L29.3464 22.3704L28.988 21.8584L25.9999 17.5899L23.012 21.8584L22.6536 22.3704L21.6296 21.6536L21.988 21.1416L25.4878 16.1416C25.6048 15.9745 25.7959 15.875 25.9998 15.875ZM11.9998 23.875C12.2038 23.875 12.3949 23.9745 12.5119 24.1416L15.4998 28.4101L18.4878 24.1416C18.6048 23.9745 18.7959 23.875 18.9998 23.875C19.2038 23.875 19.3949 23.9745 19.5119 24.1416L22.4998 28.4101L25.4878 24.1416C25.6048 23.9745 25.7959 23.875 25.9998 23.875C26.2038 23.875 26.3949 23.9745 26.5119 24.1416L30.0119 29.1416L30.3703 29.6536L29.3462 30.3704L28.9878 29.8584L25.9998 25.5899L23.0119 29.8584C22.8949 30.0255 22.7038 30.125 22.4998 30.125C22.2959 30.125 22.1048 30.0255 21.9878 29.8584L18.9998 25.5899L16.0119 29.8584C15.8949 30.0255 15.7038 30.125 15.4998 30.125C15.2959 30.125 15.1048 30.0255 14.9878 29.8584L11.9998 25.5899L9.01185 29.8584L8.65344 30.3704L7.6294 29.6536L7.98781 29.1416L11.4878 24.1416C11.6048 23.9745 11.7959 23.875 11.9998 23.875Z" fill="black"/>
</g>
<defs>
<clipPath id="clip0_2260_474">
<rect width="31" height="31" fill="white"/>
</clipPath>
</defs>
</svg>
