<svg width="31" height="31" viewBox="0 0 31 31" fill="none" xmlns="http://www.w3.org/2000/svg">
<g clip-path="url(#clip0_2260_499)">
<path d="M13.2585 1.5H7.49988L5.99988 5L4.49988 1.5H1.49988M29.4999 1.5H19.4999M22.4999 29.5H29.4999M18.4999 29.5H13.4999L11.4999 25.5L9.49988 29.5H6.49988M1.49988 29.5H2.49988M29.4999 22.5H25.4999L23.9999 19.5L22.4999 22.5H14.5344M1.49988 22.5H8.49988M15.4999 15.5H7.49988L5.99988 18.5L4.49988 15.5H1.49988M29.4999 15.5L21.4999 15.5M1.49988 8.5H3.49988M8.49988 8.5H15.4999L16.4999 5L18.4999 12L19.4999 8.5H22.4999M26.4999 8.5H29.4999" stroke="black" stroke-width="1.25" stroke-linecap="square"/>
</g>
<defs>
<clipPath id="clip0_2260_499">
<rect width="31" height="31" fill="white"/>
</clipPath>
</defs>
</svg>
