<svg width="31" height="31" viewBox="0 0 31 31" fill="none" xmlns="http://www.w3.org/2000/svg">
<g clip-path="url(#clip0_2260_561)">
<path fill-rule="evenodd" clip-rule="evenodd" d="M9.26315 1.37594C4.38433 4.33223 1.20295 9.86746 1.62237 15.3659L1.62367 15.383L1.62404 15.4002C1.79499 23.4808 9.2179 29.9724 16.5621 29.3782L16.5795 29.3768L16.597 29.3764C24.0228 29.1929 29.9472 22.261 29.3722 15.4661L29.3707 15.4492L29.3702 15.4321C29.1641 8.54901 22.8235 3.13209 16.6692 3.69283L16.6515 3.69444L16.6337 3.69504C10.3975 3.90732 5.54954 9.76093 6.08218 15.3542L6.08378 15.3709L6.08447 15.3877C6.31878 21.0729 11.5877 25.4142 16.5469 24.8911L16.5643 24.8892L16.5818 24.8884C21.6216 24.6409 25.4155 19.8849 24.9132 15.4843L24.9111 15.4663L24.9101 15.4483C24.6597 10.9667 20.4498 7.70014 16.6915 8.17893L16.6739 8.18116L16.6563 8.1824C12.8084 8.45255 10.0786 12.1332 10.5394 15.3241L10.542 15.3421L10.5435 15.3603C10.8242 18.6469 13.9434 20.8384 16.509 20.4077L16.527 20.4047L16.5451 20.4027C19.2065 20.1142 20.8612 17.5243 20.4606 15.5369L20.4569 15.5186L20.4544 15.5002C20.1608 13.4053 18.135 12.2952 16.7706 12.6521L16.7535 12.6566L16.7361 12.6601C16.0118 12.8062 15.4877 13.2389 15.1855 13.7487C14.8741 14.2737 14.8274 14.8241 14.9666 15.1923L14.9744 15.2128L14.9807 15.2338C15.1089 15.6611 15.3865 15.9065 15.6623 16.0181C15.9732 16.1439 16.1865 16.0743 16.2342 16.038L16.2561 16.0214L16.2794 16.0067C16.2997 15.994 16.3158 15.9817 16.3286 15.9703C16.1434 15.8757 16.0095 15.6908 15.9899 15.4683C15.9596 15.1245 16.2138 14.8212 16.5576 14.7908C17.24 14.7307 17.5752 15.3285 17.6234 15.7392C17.679 16.2132 17.4656 16.7257 16.9679 17.0501C16.4603 17.4198 15.757 17.405 15.1933 17.1768C14.5912 16.9331 14.0362 16.4126 13.7897 15.6137C13.4973 14.8172 13.6555 13.8781 14.1102 13.1112C14.5756 12.3262 15.3819 11.6633 16.4717 11.4383C18.5998 10.8944 21.291 12.5408 21.6897 15.3083C22.226 18.0323 20.0472 21.2696 16.6979 21.6435C13.3885 22.1867 9.64878 19.4482 9.29965 15.4847C8.74603 11.5681 12.0116 7.26595 16.5511 6.93673C21.041 6.37629 25.8578 10.1935 26.1571 15.3606C26.7297 20.4781 22.396 25.8439 16.6606 26.136C10.9708 26.7249 5.10861 21.8241 4.83623 15.4559C4.24686 9.1554 9.63296 2.69332 16.5735 2.44638C23.4547 1.83074 30.3824 7.80992 30.6191 15.3777C31.2434 22.8798 24.7752 30.4141 16.6454 30.6255C8.57841 31.2671 0.570448 24.2127 0.374691 15.4438C-0.0772263 9.42184 3.39225 3.4718 8.61537 0.306885L9.26315 1.37594Z" fill="black"/>
</g>
<defs>
<clipPath id="clip0_2260_561">
<rect width="31" height="31" fill="white"/>
</clipPath>
</defs>
</svg>
