<svg width="31" height="31" viewBox="0 0 31 31" fill="none" xmlns="http://www.w3.org/2000/svg">
<path d="M7.5 29.5001C6.85411 29.5004 6.14589 28.6763 5.5 27.0001C4.18767 23.4975 3.22922 23.6509 1.93767 27.0027C1.29178 28.6789 0.645889 29.5168 0 29.5166M15.5 29.5166C16.1459 29.5168 16.8541 28.6763 17.5 27.0001C18.7916 23.6483 20.2084 23.6483 21.5 27.0001C22.1459 28.6763 22.8541 29.5004 23.5 29.5001C24.1459 29.5004 24.8541 28.6763 25.5 27.0001C26.7916 23.6483 27.9911 23.6483 29.2827 27.0001C29.9286 28.6763 30.3541 29.5168 31 29.5166M23.5 6.50008C24.1459 6.50037 24.8541 5.67627 25.5 4.00009C26.8123 0.497455 27.7708 0.650935 29.0623 4.00272C29.7082 5.6789 30.3541 6.51685 31 6.51656M15.5 6.51656C14.8541 6.51685 14.1459 5.67626 13.5 4.00008C12.2084 0.648301 10.7916 0.648301 9.5 4.00008C8.85411 5.67626 8.14589 6.50037 7.5 6.50008C6.85411 6.50037 6.14589 5.67626 5.5 4.00008C4.20844 0.648301 3.00885 0.648306 1.7173 4.00009C1.07141 5.67627 0.645889 6.51685 0 6.51656M7.5 22.0001C8.14589 22.0004 9.04178 21.2221 9.68767 19.5426C10.9792 16.1842 12.2708 16.1842 13.5623 19.5426C14.2082 21.2221 14.8541 22.0004 15.5 22.0001C16.1459 22.0004 16.7918 21.2221 17.4377 19.5426C18.7292 16.1842 20.0208 16.1842 21.3123 19.5426C21.9582 21.2221 22.8541 22.0004 23.5 22.0001M7.5 14.0303C6.85411 14.0305 6.14589 13.1805 5.5 11.5001C4.25073 8.24983 3.22922 8.1498 1.93767 11.5101C1.29178 13.1905 0.645889 14.0305 0 14.0303M15.5 14.0001C16.1459 14.0004 16.8541 13.1905 17.5 11.5101C18.7916 8.1498 20.2084 8.1498 21.5 11.5101C22.1459 13.1905 22.8541 14.0004 23.5 14.0001C24.1459 14.0004 24.8541 13.1905 25.5 11.5101C26.7916 8.1498 28.2084 8.1498 29.5 11.5101C30.1459 13.1905 30.3541 14.0305 31 14.0303" stroke="black" stroke-width="1.25"/>
</svg>
