<svg width="31" height="31" viewBox="0 0 31 31" fill="none" xmlns="http://www.w3.org/2000/svg">
<g clip-path="url(#clip0_2260_468)">
<path d="M1.49988 1.5V0.875C1.1547 0.875 0.874878 1.15482 0.874878 1.5L1.49988 1.5ZM15.4999 1.5H16.1249C16.1249 1.15482 15.8451 0.875 15.4999 0.875V1.5ZM15.4999 29.5H14.8749C14.8749 29.8452 15.1547 30.125 15.4999 30.125V29.5ZM29.4999 29.5V30.125C29.8451 30.125 30.1249 29.8452 30.1249 29.5H29.4999ZM30.1249 16.5V15.875H28.8749V16.5H30.1249ZM0.874878 15.5V16.125H2.12488V15.5H0.874878ZM20.5 1.5V0.875C20.1548 0.875 19.875 1.15482 19.875 1.5L20.5 1.5ZM29.5 1.5H30.125C30.125 1.15482 29.8452 0.875 29.5 0.875V1.5ZM29.5 10.5V11.125C29.8452 11.125 30.125 10.8452 30.125 10.5H29.5ZM20.5 10.5H19.875C19.875 10.8452 20.1548 11.125 20.5 11.125V10.5ZM26.5 4.125H27.125V2.875H26.5V4.125ZM23.5 3.5V2.875H22.875V3.5H23.5ZM23.5 6.00001H22.875V6.62501H23.5V6.00001ZM26.4998 6.00001L27.1248 5.99995L27.1247 5.37501H26.4998V6.00001ZM26.5 8.5V9.125H27.1251L27.125 8.49995L26.5 8.5ZM23.5 7.875H22.875V9.125H23.5V7.875ZM1.49988 2.125H15.4999V0.875H1.49988V2.125ZM14.8749 1.5V29.5H16.1249V1.5H14.8749ZM15.4999 30.125H29.4999V28.875H15.4999V30.125ZM30.1249 29.5V16.5H28.8749V29.5H30.1249ZM0.874878 1.5V15.5H2.12488V1.5H0.874878ZM20.5 2.125H29.5V0.875H20.5V2.125ZM28.875 1.5V10.5H30.125V1.5H28.875ZM29.5 9.875H20.5V11.125H29.5V9.875ZM21.125 10.5V1.5H19.875V10.5H21.125ZM26.5 2.875H23.5V4.125H26.5V2.875ZM22.875 3.5V6.00001H24.125V3.5H22.875ZM23.5 6.62501H26.4998V5.37501H23.5V6.62501ZM25.8748 6.00006L25.875 8.50005L27.125 8.49995L27.1248 5.99995L25.8748 6.00006ZM26.5 7.875H23.5V9.125H26.5V7.875Z" fill="black"/>
</g>
<defs>
<clipPath id="clip0_2260_468">
<rect width="31" height="31" fill="white"/>
</clipPath>
</defs>
</svg>
