<svg width="31" height="31" viewBox="0 0 31 31" fill="none" xmlns="http://www.w3.org/2000/svg">
<g clip-path="url(#clip0_2260_477)">
<path fill-rule="evenodd" clip-rule="evenodd" d="M1.21431 0.944272C1.42248 0.837145 1.67307 0.855341 1.86357 0.991419L8.86357 5.99142L9.37216 6.35469L8.64561 7.37186L8.13703 7.00859L2.1253 2.7145V6.5V7.125H0.8753V6.5V1.5C0.8753 1.26589 1.00614 1.0514 1.21431 0.944272ZM15.2141 0.944274C15.4223 0.837146 15.6729 0.85534 15.8634 0.991415L21.8753 5.28553V1.5C21.8753 1.26588 22.0061 1.0514 22.2143 0.94427C22.4225 0.837143 22.6731 0.855343 22.8636 0.991425L29.8633 5.99143L30.3719 6.35471L29.6454 7.37186L29.1368 7.00858L23.1253 2.71452V6.5C23.1253 6.73412 22.9945 6.9486 22.7863 7.05573C22.5781 7.16286 22.3275 7.14466 22.137 7.00859L16.1251 2.71448V6.5V7.125H14.8751V6.5V1.5C14.8751 1.26589 15.006 1.0514 15.2141 0.944274ZM8.21413 8.44427C8.4223 8.33714 8.67289 8.35534 8.8634 8.49142L14.8751 12.7855V9C14.8751 8.76589 15.006 8.5514 15.2141 8.44427C15.4223 8.33714 15.6729 8.35534 15.8634 8.49142L22.8634 13.4914L23.372 13.8547L22.6454 14.8719L22.1368 14.5086L16.1251 10.2145V14C16.1251 14.2341 15.9943 14.4486 15.7861 14.5557C15.5779 14.6629 15.3274 14.6447 15.1368 14.5086L9.12512 10.2145V14V14.625H7.87512V14V9C7.87512 8.76589 8.00596 8.5514 8.21413 8.44427ZM1.21413 16.4443C1.4223 16.3371 1.67289 16.3553 1.8634 16.4914L7.87512 20.7855V17C7.87512 16.7659 8.00596 16.5514 8.21413 16.4443C8.4223 16.3371 8.67289 16.3553 8.8634 16.4914L15.8634 21.4914L16.372 21.8547L15.6454 22.8719L15.1368 22.5086L9.12512 18.2145V22C9.12512 22.2341 8.99428 22.4486 8.78611 22.5557C8.57794 22.6629 8.32736 22.6447 8.13685 22.5086L2.12512 18.2145V22V22.625H0.875122V22V17C0.875122 16.7659 1.00596 16.5514 1.21413 16.4443ZM22.2141 16.4443C22.4223 16.3371 22.6729 16.3553 22.8634 16.4914L29.8632 21.4914L30.3717 21.8547L29.6452 22.8719L29.1366 22.5086L23.1251 18.2145V22V22.625H21.8751V22V17C21.8751 16.7659 22.006 16.5514 22.2141 16.4443ZM8.21432 23.9443C8.42249 23.8371 8.67307 23.8553 8.86358 23.9914L14.8752 28.2855L14.8753 24.5C14.8753 24.2659 15.0062 24.0514 15.2143 23.9443C15.4225 23.8371 15.6731 23.8553 15.8636 23.9914L21.8753 28.2855V24.5C21.8753 24.2659 22.0061 24.0514 22.2143 23.9443C22.4225 23.8371 22.6731 23.8553 22.8636 23.9914L29.8633 28.9914L30.3719 29.3547L29.6454 30.3719L29.1368 30.0086L23.1253 25.7145V29.5C23.1253 29.7341 22.9945 29.9486 22.7863 30.0557C22.5781 30.1629 22.3275 30.1447 22.137 30.0086L16.1253 25.7145L16.1251 29.5C16.1251 29.7341 15.9943 29.9486 15.7861 30.0557C15.5779 30.1629 15.3273 30.1447 15.1368 30.0086L9.1253 25.7145V29.5V30.125H7.8753V29.5V24.5C7.8753 24.2659 8.00614 24.0514 8.21432 23.9443Z" fill="black"/>
</g>
<defs>
<clipPath id="clip0_2260_477">
<rect width="31" height="31" fill="white"/>
</clipPath>
</defs>
</svg>
