<svg width="31" height="31" viewBox="0 0 31 31" fill="none" xmlns="http://www.w3.org/2000/svg">
<g clip-path="url(#clip0_2260_536)">
<path d="M30.1809 30.3839C30.1809 30.3839 29.2912 27.6552 28.4376 25.5584M0.824951 0.69187C0.824951 0.69187 4.71245 12.1837 9.77625 20.5968M5.29207 5.42186C6.81684 3.01437 8.69754 1.36124 10.8722 1.12236C16.2547 0.531096 22.1175 11.0965 25.9301 19.5957M2.65911 11.2829C0.234354 18.8653 0.141892 28.1895 3.25832 29.9226C6.54004 31.7475 12.8718 20.1293 18.5528 11.1036M21.9245 6.02911C24.0785 3.04194 25.9964 1.03933 27.4242 1.12236C33.0519 1.44963 29.4107 29.5953 20.1414 29.9226C17.7075 30.0085 15.2279 28.0635 12.8945 25.1483" stroke="black" stroke-width="1.25"/>
</g>
<defs>
<clipPath id="clip0_2260_536">
<rect width="31" height="31" fill="white"/>
</clipPath>
</defs>
</svg>
