<svg width="31" height="31" viewBox="0 0 31 31" fill="none" xmlns="http://www.w3.org/2000/svg">
<g clip-path="url(#clip0_2260_564)">
<path fill-rule="evenodd" clip-rule="evenodd" d="M9.48248 2.125C5.49799 2.125 2.12488 5.53133 2.12488 9.63521V21.3647C2.12488 25.4757 5.43605 28.875 9.41359 28.875H21.5C25.4862 28.875 28.875 25.4668 28.875 21.3647V15.9758L26.8243 15.2208L23.9962 21.8076C23.8879 22.0598 23.6277 22.2119 23.3548 22.1824C23.0819 22.153 22.8602 21.9489 22.8082 21.6794L21.0161 12.3846L18.6094 25.5372C18.554 25.8401 18.2861 26.0575 17.9783 26.0494C17.6704 26.0414 17.4143 25.8103 17.3748 25.5049L15.3271 9.69478L13.0374 22.6697C12.9855 22.9636 12.7331 23.1798 12.4347 23.1859C12.1363 23.192 11.8752 22.9863 11.8114 22.6947L9.99549 14.4014L8.61012 20.6356C8.54901 20.9106 8.3115 21.1107 8.03014 21.1243C7.74878 21.1379 7.4931 20.9616 7.40578 20.6938L5.79286 15.7465L5.08831 17.711C4.97178 18.0359 4.61392 18.2048 4.28901 18.0883C3.9641 17.9718 3.79516 17.6139 3.91169 17.289L5.23273 13.6055C5.32292 13.354 5.56301 13.1877 5.83016 13.1916C6.09731 13.1955 6.33244 13.3688 6.41526 13.6228L7.88573 18.1331L9.38988 11.3644C9.45351 11.0781 9.70767 10.8746 10.001 10.875C10.2943 10.8755 10.5478 11.0798 10.6105 11.3663L12.356 19.338L14.8064 5.45242C14.8601 5.14842 15.1276 4.92912 15.4362 4.9362C15.7449 4.94328 16.0021 5.17462 16.0417 5.48076L18.1003 21.3747L20.3852 8.88758C20.4393 8.59182 20.6964 8.37651 20.997 8.37508C21.2977 8.37365 21.5568 8.58651 21.6137 8.88174L23.6504 19.4448L25.9096 14.1829C26.0407 13.8775 26.3879 13.7282 26.6998 13.843L29.503 14.875C29.8468 14.8766 30.125 15.1558 30.125 15.4999V21.3647C30.125 26.1398 26.1938 30.125 21.5 30.125H9.41359C4.71113 30.125 0.874878 26.131 0.874878 21.3647V9.63521C0.874878 4.86182 4.78697 0.875 9.48248 0.875H21.5C24.6894 0.875 27.4187 2.71567 28.8748 5.34691V2.50005V1.87505H30.1248V2.50005V7.50003V8.12502L29.4998 8.12503L24.4998 8.12505L23.8748 8.12505L23.8748 6.87505L24.4998 6.87505L28.2158 6.87503C27.1308 4.11256 24.5368 2.125 21.5 2.125H9.48248Z" fill="black"/>
</g>
<defs>
<clipPath id="clip0_2260_564">
<rect width="31" height="31" fill="white"/>
</clipPath>
</defs>
</svg>
