<svg width="31" height="31" viewBox="0 0 31 31" fill="none" xmlns="http://www.w3.org/2000/svg">
<g clip-path="url(#clip0_2260_445)">
<path fill-rule="evenodd" clip-rule="evenodd" d="M28.875 0.875V1.5V4.875H16.1251V1.5C16.1251 1.15482 15.8453 0.875 15.5001 0.875H1.50009C1.15491 0.875 0.875093 1.15482 0.875093 1.5V5.5V6.125H2.12509V5.5V2.125H14.8751V5.5C14.8751 5.84518 15.1549 6.125 15.5001 6.125H29.5C29.8452 6.125 30.125 5.84518 30.125 5.5V1.5V0.875H28.875ZM30.125 8.5C30.125 8.31524 30.0433 8.13994 29.9017 8.02119C29.7602 7.90244 29.5733 7.8524 29.3914 7.88451L1.36672 12.8303L0.751231 12.939L0.968476 14.1699L1.58396 14.0613L28.875 9.24496V13.5V14.125H30.125V13.5V8.5ZM9.25926 17.4391C9.14455 17.4008 9.02121 17.3967 8.9042 17.4271L1.34258 19.3951L0.737729 19.5526L1.05257 20.7623L1.65742 20.6049L9.03974 18.6835L21.6916 22.9008C21.8143 22.9417 21.9467 22.9435 22.0706 22.906L29.6814 20.5981L30.2795 20.4167L29.9167 19.2205L29.3186 19.4019L21.8982 21.652L9.25926 17.4391ZM1.95192 27.8178C4.30159 26.0697 6.4476 25.1863 8.5436 25.1312C10.6332 25.0762 12.7677 25.8423 15.1024 27.5793C17.575 29.4188 19.9661 30.4484 22.4073 30.5126C24.8549 30.5769 27.2575 29.6685 29.745 27.8178L30.2465 27.4448L29.5003 26.4419L28.9989 26.8149C26.6642 28.5519 24.5297 29.318 22.4402 29.263C20.3442 29.2079 18.1982 28.3245 15.8486 26.5764C13.361 24.7257 10.9584 23.8173 8.51075 23.8816C6.06955 23.9458 3.67835 24.9754 1.20579 26.8149L0.704346 27.188L1.45048 28.1909L1.95192 27.8178Z" fill="black"/>
</g>
<defs>
<clipPath id="clip0_2260_445">
<rect width="31" height="31" fill="white"/>
</clipPath>
</defs>
</svg>
