<svg width="31" height="31" viewBox="0 0 31 31" fill="none" xmlns="http://www.w3.org/2000/svg">
<g clip-path="url(#clip0_2260_529)">
<path fill-rule="evenodd" clip-rule="evenodd" d="M28.6601 3.95168C27.8202 4.91172 26.7373 5.65645 25.3489 5.58876C24.6303 5.55372 23.9527 5.23175 23.3296 4.8539C22.9251 4.60858 22.4923 4.30555 22.0592 4.00232L22.0591 4.0023L22.059 4.00221C21.8346 3.84509 21.6101 3.68792 21.3894 3.53871C20.0418 2.62748 18.6012 1.84101 16.8317 1.92553C15.105 2.008 14.0191 2.96654 12.9425 4.05376C12.8644 4.13265 12.7856 4.213 12.706 4.29409L12.7058 4.29438C12.2553 4.75368 11.7816 5.23672 11.2775 5.61206C10.6655 6.06781 9.95426 6.40968 9.08064 6.40968C8.11476 6.40968 7.30568 6.03618 6.59475 5.54041C6.02273 5.14152 5.47428 4.6327 4.94808 4.14453L4.94807 4.14453L4.94806 4.14452L4.948 4.14446L4.9477 4.14418C4.8354 4.04 4.72411 3.93675 4.61383 3.83572C3.31935 2.64986 2.03058 1.64101 0.112967 1.71324L0.065918 0.464122C2.52468 0.37151 4.14462 1.71066 5.45819 2.91401C5.58294 3.02829 5.70403 3.14049 5.82237 3.25014L5.82237 3.25014L5.82238 3.25015C6.34615 3.73545 6.81597 4.17076 7.30975 4.51509C7.8984 4.92559 8.45962 5.15968 9.08064 5.15968C9.59942 5.15968 10.0538 4.9648 10.531 4.6095C10.9503 4.29724 11.3449 3.89552 11.7988 3.43352L11.7989 3.43346L11.7997 3.43268L11.8003 3.43206L11.8003 3.43199C11.8829 3.348 11.9673 3.26202 12.0543 3.17422C13.1506 2.06708 14.5329 0.7839 16.772 0.676952C18.9683 0.572052 20.6987 1.56272 22.0896 2.50322C22.3514 2.68027 22.5947 2.85081 22.8264 3.01316L22.8265 3.01326L22.8266 3.01331L22.8269 3.01354L22.8269 3.01358L22.827 3.0136L22.827 3.01365L22.8271 3.01367C23.2344 3.29918 23.6056 3.55936 23.9778 3.78509C24.553 4.13392 25.0107 4.32078 25.4098 4.34024C26.2597 4.38168 27.0049 3.94525 27.7193 3.12861C28.4385 2.3066 29.0482 1.18627 29.6208 0.0483398L30.7374 0.610178C30.1663 1.74517 29.4953 2.99702 28.6601 3.95168ZM20.7949 8.4235C19.7371 7.82995 18.6996 7.44979 17.6137 7.51601C15.7685 7.62853 14.7508 8.92456 13.7258 10.5137C13.6411 10.645 13.5558 10.7792 13.4696 10.9147L13.4692 10.9154L13.4692 10.9154C13.0577 11.5627 12.6266 12.2409 12.1444 12.7896C11.5468 13.4697 10.8019 14.0356 9.79411 14.1507C7.97812 14.3581 6.64745 13.3926 5.47804 12.5442L5.47755 12.5438L5.47735 12.5437L5.47732 12.5436C5.34937 12.4508 5.22335 12.3594 5.09883 12.271C3.79615 11.3468 2.49281 10.5837 0.448201 10.9791L0.210861 9.75188C2.77313 9.25636 4.442 10.2724 5.82212 11.2515C5.94527 11.3389 6.06507 11.4248 6.18213 11.5088L6.18311 11.5095L6.18358 11.5098L6.18368 11.5099C7.41569 12.3934 8.343 13.0583 9.65225 12.9088C10.2323 12.8425 10.7162 12.5213 11.2054 11.9645C11.6175 11.4956 11.9845 10.9192 12.3948 10.2748L12.395 10.2745L12.3951 10.2743C12.4861 10.1314 12.5792 9.98525 12.6754 9.83614C13.6895 8.26384 15.0103 6.42245 17.5376 6.26833C18.9713 6.1809 20.2599 6.68997 21.4066 7.33337C21.9813 7.65586 22.5352 8.0208 23.0616 8.37423L23.3083 8.54024L23.3084 8.5403C23.75 8.8377 24.1702 9.12071 24.5864 9.37392C25.586 9.98193 26.4324 10.3324 27.2277 10.2719C27.9823 10.2145 28.8502 9.76957 29.8521 8.38782L30.864 9.12158C29.7393 10.6728 28.576 11.423 27.3225 11.5183C26.1098 11.6105 24.9713 11.0711 23.9368 10.4419C23.4936 10.1722 23.0454 9.87036 22.6046 9.57336L22.3648 9.41199C21.8405 9.05996 21.3224 8.71948 20.7949 8.4235ZM22.6311 24.222C22.864 24.1194 23.2292 24.1606 23.8644 24.5725C24.4119 24.9276 25.0008 25.4521 25.6559 26.0355L25.656 26.0356L25.656 26.0356L25.6567 26.0362L25.6569 26.0364L25.6623 26.0413C25.7387 26.1093 25.816 26.1781 25.8943 26.2476C26.6197 26.8917 27.4205 27.5833 28.2376 28.0385C29.0568 28.4948 30.0048 28.7757 30.9688 28.4165L30.5323 27.2452C30.0654 27.4192 29.524 27.3241 28.8459 26.9464C28.1658 26.5676 27.4613 25.9673 26.7242 25.3129C26.6449 25.2425 26.5651 25.1713 26.4848 25.0997L26.484 25.099L26.484 25.099C25.8448 24.529 25.1784 23.9348 24.5446 23.5237C23.8529 23.0752 22.9844 22.7005 22.1272 23.0781C21.4829 23.3619 21.1423 23.8911 20.9343 24.4472C20.7658 24.8977 20.6602 25.4368 20.5577 25.96C20.5397 26.0518 20.5218 26.1431 20.5037 26.2334C20.2511 27.4918 19.9062 28.8464 18.7155 30.0278L19.5959 30.9151C21.0665 29.456 21.468 27.781 21.7292 26.4794C21.7501 26.3756 21.7698 26.2756 21.7888 26.1794C21.8932 25.6495 21.9758 25.2307 22.1051 24.8851C22.2479 24.5034 22.4102 24.3193 22.6311 24.222ZM21.1817 13.4536C20.2736 13.033 19.4469 12.8423 18.6354 13.0159C16.7229 13.4249 15.8363 15.1524 14.944 17.2363C14.8936 17.3539 14.8432 17.4727 14.7924 17.5922L14.7923 17.5925C14.4159 18.4788 14.0231 19.4036 13.5323 20.1606C12.9651 21.0354 12.2082 21.7815 11.0856 22.0136C9.25297 22.3924 7.67704 21.6297 6.26106 20.9445L6.26081 20.9444C6.10069 20.8669 5.94261 20.7904 5.78644 20.7167C4.19889 19.967 2.65085 19.3858 0.62393 20.0422L0.238808 18.853C2.74273 18.0421 4.67057 18.8074 6.32018 19.5863C6.47701 19.6604 6.63024 19.7337 6.7804 19.8056C8.25782 20.5127 9.4383 21.0777 10.8326 20.7894C11.498 20.6519 12.0104 20.2101 12.4835 19.4805C12.9106 18.8218 13.2573 18.0068 13.6412 17.1045C13.6917 16.9859 13.7429 16.8657 13.7949 16.7442C14.6457 14.7573 15.744 12.356 18.374 11.7935C19.5617 11.5395 20.6818 11.8445 21.7071 12.3194C22.4659 12.6708 23.2309 13.1458 23.9607 13.5988L23.9608 13.5989C24.2001 13.7475 24.4357 13.8937 24.666 14.0325C25.6325 14.6148 26.5373 15.0875 27.439 15.2654C28.3078 15.4369 29.1903 15.3378 30.1457 14.7231L30.8221 15.7743C29.5773 16.5752 28.362 16.7217 27.1969 16.4917C26.0646 16.2683 24.9993 15.6926 24.0209 15.1031C23.756 14.9436 23.4988 14.7839 23.2467 14.6275C22.5353 14.186 21.8652 13.7702 21.1817 13.4536ZM20.4203 18.3756C21.0135 18.1759 21.5861 18.2822 22.252 18.6298C22.8325 18.9327 23.4136 19.3795 24.08 19.8918C24.2096 19.9915 24.3424 20.0936 24.4791 20.1976C26.0986 21.4303 28.1422 22.8361 30.9368 22.214L30.6651 20.9938C28.4744 21.4816 26.8496 20.4311 25.2361 19.203C25.1138 19.1099 24.9905 19.0149 24.8665 18.9194L24.8661 18.9191C24.2026 18.408 23.5172 17.88 22.8303 17.5216C21.9873 17.0817 21.0498 16.8447 20.0214 17.191C18.9911 17.5379 18.3442 18.3389 17.8858 19.2412C17.4659 20.0675 17.1634 21.0627 16.872 22.0215L16.8036 22.2463C16.4819 23.301 16.1578 24.3144 15.6888 25.1766C15.2255 26.0285 14.6426 26.6901 13.8257 27.0784C13.0473 27.4483 12.1929 27.4782 11.1985 27.3548C10.7063 27.2937 10.1994 27.1981 9.65828 27.096L9.63938 27.0924C9.09804 26.9903 8.52512 26.8826 7.93934 26.8097C6.76308 26.6632 5.49294 26.6504 4.17867 27.1053C2.85938 27.562 1.55283 28.4699 0.265264 30.07L1.23912 30.8537C2.40782 29.4013 3.52941 28.6529 4.58759 28.2866C5.6508 27.9185 6.70748 27.9159 7.78487 28.0501C8.32592 28.1175 8.86153 28.2177 9.40761 28.3208L9.44499 28.3278C9.97238 28.4273 10.5128 28.5293 11.0446 28.5953C12.1351 28.7306 13.2697 28.7266 14.3622 28.2074C15.4921 27.6704 16.2432 26.7735 16.7869 25.7739C17.3251 24.7845 17.6813 23.6534 17.9992 22.611L18.0583 22.417C18.3605 21.4241 18.6323 20.5313 19.0001 19.8074C19.3861 19.0478 19.8292 18.5746 20.4203 18.3756Z" fill="black"/>
</g>
<defs>
<clipPath id="clip0_2260_529">
<rect width="31" height="31" fill="white"/>
</clipPath>
</defs>
</svg>
