<svg width="31" height="31" viewBox="0 0 31 31" fill="none" xmlns="http://www.w3.org/2000/svg">
<g clip-path="url(#clip0_2260_451)">
<path fill-rule="evenodd" clip-rule="evenodd" d="M24.1229 4.875V1.5C24.1229 1.15482 23.8431 0.875 23.4979 0.875H17.4979C17.1528 0.875 16.8729 1.15482 16.8729 1.5V5.5V6.125H18.1229V5.5V2.125H22.8729V5.5C22.8729 5.84518 23.1528 6.125 23.4979 6.125L29.4979 6.12502C29.6637 6.12502 29.8227 6.05917 29.9399 5.94196C30.0571 5.82475 30.1229 5.66578 30.1229 5.50002V1.50002V0.875019H28.8729V1.50002V4.87502L24.1229 4.875ZM30.123 8.60291C30.123 8.39475 30.0194 8.20025 29.8466 8.08415C29.6739 7.96805 29.4546 7.94558 29.2619 8.02424L17.2619 12.9213L16.6832 13.1575L17.1555 14.3148L17.7342 14.0787L28.873 9.533V13.5V14.125H30.123V13.5V8.60291ZM20.898 17.0199C20.6663 16.8267 20.3296 16.8267 20.0978 17.0199L17.0978 19.5199L16.6177 19.92L17.4179 20.8802L17.898 20.4801L20.4979 18.3136L26.0978 22.9801C26.3296 23.1733 26.6663 23.1733 26.898 22.9801L29.898 20.4801L30.3782 20.08L29.578 19.1197L29.0978 19.5199L26.4979 21.6864L20.898 17.0199ZM18.18 27.4291C18.6733 26.6229 19.1309 26.041 19.5547 25.6605C19.9773 25.2811 20.3277 25.1357 20.6184 25.1189C20.9005 25.1026 21.2311 25.2014 21.6334 25.5283C22.0431 25.8611 22.4939 26.4056 22.9847 27.2077C23.51 28.0663 24.041 28.7607 24.5906 29.2541C25.1415 29.7486 25.7496 30.0749 26.4173 30.1134C27.0936 30.1525 27.7214 29.8904 28.2926 29.4263C28.8563 28.9683 29.3941 28.2918 29.9219 27.4291L30.2481 26.896L29.1818 26.2436L28.8556 26.7767C28.3648 27.5789 27.914 28.1233 27.5043 28.4562C27.102 28.7831 26.7714 28.8818 26.4893 28.8655C26.1986 28.8487 25.8483 28.7034 25.4257 28.324C25.0019 27.9435 24.5443 27.3616 24.051 26.5553C23.5231 25.6926 22.9854 25.0161 22.4216 24.5581C21.8505 24.0941 21.2227 23.832 20.5463 23.871C19.8786 23.9096 19.2705 24.2358 18.7197 24.7303C18.17 25.2238 17.6391 25.9182 17.1137 26.7767L16.7875 27.3099L17.8538 27.9622L18.18 27.4291ZM4.09781 17.0199C4.32959 16.8267 4.66627 16.8267 4.89804 17.0199L10.4979 21.6864L13.0978 19.5199L13.578 19.1197L14.3782 20.08L13.898 20.4801L10.898 22.9801C10.6663 23.1733 10.3296 23.1733 10.0978 22.9801L4.49793 18.3136L1.89804 20.4801L1.4179 20.8802L0.617676 19.92L1.09781 19.5199L4.09781 17.0199ZM14.123 8.60291C14.123 8.39475 14.0194 8.20025 13.8466 8.08415C13.6739 7.96805 13.4546 7.94558 13.2619 8.02424L1.2619 12.9213L0.683228 13.1575L1.15553 14.3148L1.7342 14.0787L12.873 9.533V13.5V14.125H14.123V13.5V8.60291ZM2.12533 6.12469L2.125 5.49969L2.12325 2.12502H6.87293V5.50002C6.87293 5.8452 7.15275 6.12502 7.49793 6.12502H13.4979C13.8431 6.12502 14.1229 5.8452 14.1229 5.50002V1.50002V0.875019H12.8729V1.50002V4.87502H8.12293V1.50002C8.12293 1.15484 7.84311 0.875019 7.49793 0.875019H1.49793C1.33211 0.875019 1.17309 0.940912 1.05587 1.05819C0.938653 1.17547 0.872843 1.33453 0.872929 1.50034L0.875004 5.50034L0.875329 6.12534L2.12533 6.12469ZM2.14217 27.4295C2.63618 26.6232 3.09441 26.0413 3.51889 25.6608C3.94215 25.2813 4.29324 25.1358 4.58491 25.1189C4.86798 25.1026 5.1994 25.2016 5.60239 25.5285C6.01274 25.8615 6.4642 26.4059 6.95569 27.2081C7.48177 28.0666 8.01347 28.761 8.56384 29.2544C9.11544 29.7489 9.72415 30.0749 10.3923 30.1134C11.069 30.1525 11.6973 29.8906 12.2692 29.4266C12.8337 28.9686 13.3722 28.2922 13.9008 27.4295L14.2273 26.8965L13.1615 26.2435L12.835 26.7764C12.3435 27.5785 11.892 28.123 11.4817 28.4559C11.0787 28.7828 10.7473 28.8818 10.4642 28.8655C10.1726 28.8487 9.82149 28.7031 9.39823 28.3237C8.97376 27.9431 8.51552 27.3612 8.02152 26.555C7.49292 25.6923 6.95444 25.0158 6.38992 24.5578C5.81804 24.0939 5.18968 23.832 4.51295 23.871C3.84483 23.9095 3.23612 24.2355 2.68451 24.73C2.13413 25.2234 1.60242 25.9178 1.07634 26.7764L0.749807 27.3093L1.81564 27.9624L2.14217 27.4295Z" fill="black"/>
</g>
<defs>
<clipPath id="clip0_2260_451">
<rect width="31" height="31" fill="white"/>
</clipPath>
</defs>
</svg>
