<svg width="11" height="11" viewBox="0 0 11 11" fill="none" xmlns="http://www.w3.org/2000/svg">
<path fill-rule="evenodd" clip-rule="evenodd" d="M10 2.5C10 3.32843 9.32843 4 8.5 4C8.26843 4 8.04911 3.94752 7.85329 3.85381L3.85381 7.85329C3.94752 8.04911 4 8.26843 4 8.5C4 9.32843 3.32843 10 2.5 10C1.67157 10 1 9.32843 1 8.5C1 7.67157 1.67157 7 2.5 7C2.73157 7 2.95089 7.05248 3.14671 7.14619L7.14619 3.14671C7.05248 2.95089 7 2.73157 7 2.5C7 1.67157 7.67157 1 8.5 1C9.32843 1 10 1.67157 10 2.5Z" fill="black"/>
</svg>
