<svg width="11" height="11" viewBox="0 0 11 11" fill="none" xmlns="http://www.w3.org/2000/svg">
<path fill-rule="evenodd" clip-rule="evenodd" d="M3.57967 3.54131C3.83992 3.27152 4 2.90446 4 2.5C4 1.67157 3.32843 1 2.5 1C1.67157 1 1 1.67157 1 2.5C1 3.32843 1.67157 4 2.5 4C2.56275 4 2.62459 3.99615 2.68532 3.98867L4.42033 7.45869C4.16008 7.72848 4 8.09554 4 8.5C4 9.32843 4.67157 10 5.5 10C6.32843 10 7 9.32843 7 8.5C7 8.09554 6.83992 7.72848 6.57967 7.45869L8.31468 3.98867C8.37541 3.99615 8.43725 4 8.5 4C9.32843 4 10 3.32843 10 2.5C10 1.67157 9.32843 1 8.5 1C7.67157 1 7 1.67157 7 2.5C7 2.90446 7.16008 3.27152 7.42033 3.54131L5.68532 7.01133C5.62459 7.00385 5.56275 7 5.5 7C5.43725 7 5.37541 7.00385 5.31468 7.01133L3.57967 3.54131Z" fill="black"/>
</svg>
