<svg width="19" height="11" viewBox="0 0 19 11" fill="none" xmlns="http://www.w3.org/2000/svg">
<path d="M12.99 1.90002H11.92L11.58 2.35002C11.06 1.98002 10.44 1.77002 9.74 1.77002C7.85 1.77002 6.49 3.31002 6.49 5.45002C6.49 6.44002 6.78 7.31002 7.28 7.95002L6.48 9.00002H7.56L7.9 8.55002C8.41 8.93002 9.04 9.14002 9.74 9.14002C11.64 9.14002 12.99 7.59002 12.99 5.45002C12.99 4.45002 12.7 3.59002 12.19 2.94002L12.99 1.90002ZM7.63 5.45002C7.63 3.95002 8.47 2.80002 9.74 2.80002C10.2 2.80002 10.6 2.95002 10.92 3.20002L8 7.02002C7.76 6.58002 7.63 6.04002 7.63 5.45002ZM11.85 5.45002C11.85 6.95002 11.02 8.11002 9.74 8.11002C9.28 8.11002 8.88 7.96002 8.56 7.70002L11.48 3.88002C11.72 4.31002 11.85 4.85002 11.85 5.45002Z" fill="black"/>
</svg>
