<svg width="11" height="11" viewBox="0 0 11 11" fill="none" xmlns="http://www.w3.org/2000/svg">
<path d="M3.5 4C3.5 2.89543 4.39543 2 5.5 2C6.60457 2 7.5 2.89543 7.5 4C7.5 4.93192 6.86261 5.71497 6 5.93699V7H5V5.7C5 5.36313 5.23796 5.08184 5.55496 5.01505C5.59187 5.00385 5.63265 4.99491 5.67317 4.98603C5.71125 4.97768 5.74909 4.96939 5.78324 4.95932C6.19758 4.83718 6.5 4.45391 6.5 4C6.5 3.44772 6.05228 3 5.5 3C4.94772 3 4.5 3.44772 4.5 4H3.5Z" fill="black"/>
<path d="M6 9V8H5V9H6Z" fill="black"/>
</svg>
