<svg width="17" height="11" viewBox="0 0 17 11" fill="none" xmlns="http://www.w3.org/2000/svg">
<path d="M4.72188 8.0699V1.8999H3.78188L1.67188 3.4299L2.25188 4.1799L3.61188 3.2199V8.0699H1.78188V8.9999H6.31188V8.0699H4.72188Z" fill="black"/>
<path d="M8.49797 5.4699C8.91797 5.4699 9.29797 5.0899 9.29797 4.6699C9.29797 4.2399 8.91797 3.8699 8.49797 3.8699C8.07797 3.8699 7.69797 4.2399 7.69797 4.6699C7.69797 5.0899 8.07797 5.4699 8.49797 5.4699ZM8.49797 9.0699C8.91797 9.0699 9.29797 8.6999 9.29797 8.2699C9.29797 7.8499 8.91797 7.4699 8.49797 7.4699C8.07797 7.4699 7.69797 7.8499 7.69797 8.2699C7.69797 8.6999 8.07797 9.0699 8.49797 9.0699Z" fill="black"/>
<path d="M13.882 8.0699V1.8999H12.942L10.832 3.4299L11.412 4.1799L12.772 3.2199V8.0699H10.942V8.9999H15.472V8.0699H13.882Z" fill="black"/>
</svg>
