<svg width="19" height="11" viewBox="0 0 19 11" fill="none" xmlns="http://www.w3.org/2000/svg">
<path fill-rule="evenodd" clip-rule="evenodd" d="M5 5.5C5 3.01472 7.01472 1 9.5 1C11.9853 1 14 3.01472 14 5.5C14 7.98528 11.9853 10 9.5 10C7.01472 10 5 7.98528 5 5.5ZM7.00061 3.04989C7.63583 2.40198 8.52097 2 9.5 2C11.433 2 13 3.567 13 5.5C13 7.433 11.433 9 9.5 9C8.52097 9 7.63583 8.59802 7.00061 7.95011C7.16198 7.98283 7.32898 8 7.5 8C8.88071 8 10 6.88071 10 5.5C10 4.11929 8.88071 3 7.5 3C7.32898 3 7.16198 3.01717 7.00061 3.04989ZM6 5.5C6 6.32843 6.67157 7 7.5 7C8.32843 7 9 6.32843 9 5.5C9 4.67157 8.32843 4 7.5 4C6.67157 4 6 4.67157 6 5.5Z" fill="black"/>
</svg>
